<svg xmlns="http://www.w3.org/2000/svg" viewBox="0 0 1558.33 880"><defs><style>.cls-1{fill:#e94553;}.cls-2{font-size:89.62px;font-family:Roboto-Regular, Roboto;letter-spacing:0.18em;}.cls-2,.cls-5,.cls-7,.cls-8{fill:#fff;}.cls-3{letter-spacing:0.2em;}.cls-4{letter-spacing:0.16em;}.cls-5{font-size:236.25px;font-family:'Roboto Light', Roboto;letter-spacing:0.15em;}.cls-6{letter-spacing:0.16em;}.cls-8{stroke:#fff;stroke-miterlimit:10;stroke-width:8px;}.cls-9{fill:#ea5164;}.cls-10{fill:#b35a75;}.cls-11{fill:#5b669e;}.cls-12{fill:#214f8f;}.cls-13{fill:#3864a3;}.cls-14{fill:#7c6491;}.cls-15{fill:#906389;}</style></defs><title>CorrelAidX_Logo_Konstanz-neg all white</title><g id="Ebene_2" ><g id="_02-a_CorrelAid_X_Zentriert"><text class="cls-5" transform="translate(0 875.09)">CORRE<tspan class="cls-6" x="924.82" y="0">L</tspan><tspan x="1086.92" y="0">AID</tspan></text><g id="C_Correl_Aid_X"><g id="Outline_X"><polygon class="cls-7" points="1070.98 51.1 1045.25 76.85 1070.98 102.58 1070.98 151.46 1021.83 151.46 996.1 125.72 970.35 151.46 921.12 151.46 921.12 101.68 946.87 75.93 921.12 50.2 921.12 0 971.32 0 997.07 25.75 1022.82 0 1070.98 0 1070.98 51.1"/></g><path id="X" class="cls-1" d="M991.78,75.74,927.21,140.3V104.47l.09-.06.06-.09,28.16-28.14L927.36,48l-.09-.06-.06-.09V11.16ZM996.05,80,930.1,146l0,0h37.74l.09-.06.06-.09,28.15-28.16,28.14,28.16.08.06.08.09H1062Zm28.42-73.74-.08.1-.08.07L996.17,34.6,968,6.44,968,6.35l-.09-.08h-37l65.18,65.19,65.18-65.19Zm40,41.69.08-.09V11.54l-64.18,64.2,64.18,64.18V104.47l-.09-.06-.08-.09L1036.2,76.18,1064.35,48Z"/><polygon id="Outline" class="cls-8" points="654.18 215.39 654.18 285.68 731.26 355.08 886.37 355.08 886.37 494.57 654.47 494.57 654.18 494.31 499.71 355.22 499.15 354.72 499.15 146.35 499.72 145.84 654.18 6.76 654.63 6.35 886.37 6.35 886.37 145.84 731.43 145.84 654.18 215.39"/><g id="C_x"><polygon class="cls-1" points="885.59 9.81 885.59 142.27 748.02 59.26 885.59 9.81"/><polygon class="cls-9" points="876.8 6.54 741.33 55.23 660.64 6.54 876.8 6.54"/><polygon class="cls-10" points="727.98 148.43 655.82 213.4 505.38 146.48 690.4 79.98 727.98 148.43"/><polygon class="cls-10" points="880.08 146.03 733.55 146.03 696.15 77.91 740.67 61.91 880.08 146.03"/><polygon class="cls-11" points="878.67 355.27 739.9 439.01 696.94 423.57 734.43 355.27 878.67 355.27"/><polygon class="cls-11" points="885.59 358.18 885.59 491.38 747.24 441.66 885.59 358.18"/><polygon class="cls-12" points="877.08 494.76 659.25 494.76 740.58 445.68 877.08 494.76"/><polygon class="cls-13" points="688.22 426.87 652.64 491.66 651.21 492.52 505.25 361.1 688.22 426.87"/><polygon class="cls-14" points="728.5 353.48 691.17 421.5 505.03 354.59 655.43 287.7 728.5 353.48"/><polygon class="cls-15" points="653.4 218.96 653.4 281.96 498.37 350.91 498.37 150.01 653.4 218.96"/><polygon class="cls-9" points="687.45 74.61 505.71 139.93 651.33 8.82 687.45 74.61"/><polygon class="cls-1" points="733.99 57.87 693.2 72.54 660.96 13.8 733.99 57.87"/><polygon class="cls-13" points="733.22 443.04 662.97 485.42 693.98 428.94 733.22 443.04"/></g></g></g></g></svg>