<svg xmlns="http://www.w3.org/2000/svg" width="1120" height="230" viewBox="0 0 1076 180">
    <g transform="translate(577,-42),scale(2,2)" id="g4179">
      <path d="M -183.06031,65.905051 L -183.06031,83.860759 C -186.11677,86.80135 -189.18562,88.375286 -192.1457,88.375286 C -196.67582,88.375286 -199.96047,85.016231 -199.96047,80.291586 C -199.96047,75.144224 -196.79062,71.997767 -187.17586,67.801429 L -183.06031,65.905051 z M 233.37393,27.932847 C 229.70838,39.823831 224.03945,45.392847 215.52275,45.392847 L 205.62488,45.392847 L 205.62488,27.932847 L 203.20586,27.932847 C 199.94354,37.927453 194.28594,44.137099 186.08319,46.760917 L 186.08319,49.273476 L 193.76189,49.273476 L 193.76189,82.23757 C 193.76189,92.354775 196.89842,96.346664 204.88964,96.346664 C 210.88492,96.346664 214.77759,93.611586 218.14763,87.196074 L 218.56822,86.562176 L 216.67858,85.506625 C 214.35594,88.252688 212.77456,89.30257 210.77578,89.30257 C 206.99649,89.30257 205.62488,86.667767 205.62488,79.391232 L 205.62488,49.273476 L 223.9257,49.273476 L 223.9257,82.23757 C 223.9257,92.354775 227.08456,96.346664 235.05346,96.346664 C 241.58236,96.346664 245.99342,92.988672 249.46586,85.506625 L 247.68429,84.560917 C 245.37299,87.829972 243.27322,89.30257 240.95626,89.30257 C 237.16563,89.30257 235.78763,86.667767 235.78763,79.391232 L 235.78763,49.273476 L 247.68429,49.273476 L 247.68429,45.392847 L 235.78763,45.392847 L 235.78763,27.932847 L 233.37393,27.932847 L 233.37393,27.932847 z M -234.82448,59.368004 L -234.82448,83.294184 C -234.82448,91.303475 -236.29921,92.988672 -243.57361,93.193475 L -243.57361,95.406625 L -213.06362,95.406625 L -213.06362,93.193475 C -220.63354,92.877412 -221.80141,91.403751 -221.80141,81.709263 L -221.80141,33.152138 C -221.80141,24.859383 -220.52547,23.491312 -213.06362,23.068595 L -213.06362,20.867493 L -243.57361,20.867493 L -243.57361,23.068595 C -236.41295,23.39139 -234.82448,24.96391 -234.82448,32.107926 L -234.82448,54.788279 L -266.29224,54.788279 L -266.29224,32.630563 C -266.29224,25.070918 -264.60704,23.280131 -257.56011,23.068595 L -257.56011,20.867493 L -288.05877,20.867493 L -288.05877,23.068595 C -281.00582,23.280131 -279.32664,25.170839 -279.32664,32.630563 L -279.32664,81.814854 C -279.32664,91.403751 -280.59019,92.988672 -288.05877,93.193475 L -288.05877,95.406625 L -257.56011,95.406625 L -257.56011,93.193475 C -264.82283,93.405719 -266.29224,91.720877 -266.29224,83.182924 L -266.29224,59.368004 L -234.82448,59.368004 z M -183.05925,89.931153 C -183.05925,94.778397 -182.4218,95.406625 -177.49271,95.406625 L -164.81015,95.406625 L -164.81015,93.405719 C -170.04751,93.300129 -171.19625,91.510405 -171.19625,82.760208 L -171.19625,60.313358 C -171.19625,47.867138 -175.4996,43.765051 -188.55279,43.765051 C -200.68791,43.765051 -209.60783,49.228476 -209.60783,56.655602 C -209.60783,60.002256 -207.29688,62.319933 -204.05263,62.319933 C -200.38673,62.319933 -198.70153,60.102177 -198.79259,55.51572 C -199.00413,49.751114 -196.58369,47.027374 -191.29566,47.027374 C -185.38188,47.027374 -183.05925,50.279421 -183.05925,58.745445 L -183.05925,62.319933 C -204.88885,70.0082 -211.69767,75.177885 -211.69767,83.815759 C -211.69767,91.331822 -206.35791,96.924223 -199.11184,96.924223 C -194.04562,96.924223 -191.71732,95.556152 -183.05925,87.641113 L -183.05925,89.931153 z M -144.59169,58.667846 C -140.27594,53.831587 -136.78685,51.73076 -132.99622,51.73076 C -127.72519,51.73076 -126.03433,54.888555 -126.03433,64.015405 L -126.03433,83.438043 C -126.03433,91.014696 -127.20114,92.910011 -132.26204,93.332727 L -132.26204,95.406625 L -107.71118,95.406625 L -107.71118,93.405719 C -112.692,93.405719 -114.18267,91.193633 -114.18267,83.92135 L -114.18267,63.059775 C -114.18267,49.740839 -118.27555,43.748398 -127.51366,43.748398 C -133.51992,43.748398 -138.15385,46.693595 -144.59169,54.788279 L -144.59169,43.859658 L -146.8959,43.859658 L -163.54661,49.845721 L -162.91484,51.630839 C -161.87842,51.319382 -161.34905,51.208122 -160.83066,51.208122 C -157.48436,51.208122 -156.43094,53.420209 -156.43094,60.002256 L -156.43094,84.449657 C -156.43094,91.193633 -157.89999,93.300129 -162.81279,93.405719 L -162.81279,95.406625 L -138.26724,95.406625 L -138.26724,93.405719 C -143.22468,93.405719 -144.59169,91.193633 -144.59169,83.288515 L -144.59169,58.667846 z M -58.649485,20.867493 L -61.063186,20.867493 L -77.860941,27.165012 L -77.240508,28.95013 L -76.493933,28.738949 C -75.760114,28.427493 -75.441926,28.427493 -74.707752,28.427493 C -71.456768,28.427493 -70.511414,30.41706 -70.511414,37.34954 L -70.511414,47.85013 C -74.615626,44.698004 -77.240508,43.748398 -81.651571,43.748398 C -94.584642,43.748398 -104.44318,55.843831 -104.44318,71.719972 C -104.44318,86.650759 -96.673421,96.935562 -85.33413,96.935562 C -79.875311,96.935562 -77.75287,95.884617 -70.511414,89.697294 C -70.511414,94.983908 -69.983107,95.406625 -64.955863,95.406625 L -52.222989,95.406625 L -52.222989,93.405719 C -57.806532,93.405719 -58.649485,91.832137 -58.649485,81.737255 L -58.649485,20.867493 z M -70.511414,85.516546 C -74.91787,88.441546 -76.397201,89.074381 -78.920036,89.074381 C -86.376217,89.074381 -91.64724,80.147728 -91.64724,67.127846 C -91.64724,55.143673 -87.747831,47.744539 -81.5435,47.744539 C -74.08165,47.744539 -70.511414,53.137098 -70.511414,64.293909 L -70.511414,85.516546 z M -9.0527539,76.984263 C -12.735667,83.800168 -16.947596,86.839617 -23.049525,86.839617 C -32.533895,86.839617 -38.737871,78.347019 -39.694564,64.293909 L -7.2655099,64.293909 C -7.9996831,50.929264 -14.738699,43.759382 -26.322832,43.759382 C -40.007084,43.759382 -49.701572,55.155012 -49.701572,71.319933 C -49.701572,86.628436 -41.065824,96.935562 -28.013698,96.935562 C -17.36925,96.935562 -11.044801,91.154302 -7.2655099,77.718436 L -9.0527539,76.984263 z M -39.58543,60.534815 C -38.431021,51.980209 -35.060982,47.972728 -29.169171,47.972728 C -23.487832,47.972728 -20.31799,52.197413 -19.782596,60.534815 L -39.58543,60.534815 z M 13.545395,20.867493 L 11.132049,20.867493 L -5.8875178,27.171745 L -5.3521241,28.95013 C -3.6853525,28.638674 -3.1499588,28.538753 -2.4037383,28.538753 C 0.53933246,28.538753 1.6824033,31.051312 1.6824033,37.255288 L 1.6824033,84.949972 C 1.6824033,91.154302 0.10634034,93.360719 -4.731691,93.360719 L -4.731691,95.406625 L 20.029293,95.406625 L 20.029293,93.405719 C 15.145198,93.405719 13.545395,91.29816 13.545395,84.983633 L 13.545395,20.867493 L 13.545395,20.867493 z M 52.093032,44.382295 C 51.148741,45.115051 50.5113,45.426508 49.565945,45.426508 C 48.724056,45.426508 48.189016,45.326587 45.354016,44.592414 C 43.13945,43.958516 41.676772,43.748398 39.997245,43.748398 C 30.246773,43.748398 23.654804,49.728791 23.654804,58.784775 C 23.654804,65.304815 25.629844,67.939618 35.580513,74.355129 C 46.925473,81.725917 47.14693,81.937452 47.14693,85.934657 C 47.113268,89.886153 43.845276,92.832412 39.542284,92.832412 C 32.279214,92.832412 28.299725,88.413554 25.664568,77.690444 L 23.888663,77.690444 L 23.888663,95.990208 L 26.085159,95.990208 C 27.132914,95.35631 27.764686,95.144775 28.499922,95.144775 C 29.033899,95.144775 29.557599,95.250365 31.868899,95.778672 C 35.438072,96.724381 37.128584,96.935562 39.439883,96.935562 C 49.993268,96.935562 57.683307,90.308869 57.683307,81.159342 C 57.683307,74.221192 54.626851,70.647767 42.843583,63.710681 C 34.760237,58.879027 32.335198,56.455405 32.335198,53.197689 C 32.335198,49.835445 35.283938,47.62761 39.798465,47.62761 C 46.1913,47.62761 49.565945,51.202453 51.893898,60.868949 L 53.926339,60.868949 L 53.926339,44.382295 L 52.093032,44.382295 z M 77.526535,20.867493 L 75.330039,20.867493 L 58.173347,27.060485 L 58.918859,28.95013 C 59.652677,28.638674 60.398189,28.527414 61.133425,28.527414 C 64.633858,28.527414 65.789331,30.628595 65.789331,37.243949 L 65.789331,91.042688 C 73.86063,95.456231 78.483228,96.924223 84.698543,96.924223 C 99.755117,96.924223 110.87153,84.738791 110.87153,68.140878 C 110.87153,54.071114 103.32429,43.759382 93.014685,43.759382 C 87.009488,43.759382 82.490708,46.600051 77.526535,53.542807 L 77.526535,20.867493 z M 77.526535,57.323161 C 80.588661,54.275917 83.12248,53.020169 86.281338,53.020169 C 93.863307,53.020169 99.020944,61.102807 99.020944,72.765602 C 99.020944,84.527255 94.170511,92.721153 87.009488,92.721153 C 83.856299,92.721153 81.317165,91.56568 77.526535,88.307964 L 77.526535,57.323161 z M 131.66012,20.867493 L 129.23543,20.867493 L 112.23854,27.171745 L 112.76118,28.95013 C 114.45205,28.638674 114.96441,28.538753 115.69858,28.538753 C 118.65264,28.538753 119.79712,31.051312 119.79712,37.255288 L 119.79712,84.949972 C 119.79712,91.142964 118.2324,93.344066 113.40535,93.344066 L 113.40535,95.406625 L 138.13161,95.406625 L 138.13161,93.405719 C 133.25425,93.405719 131.66012,91.303475 131.66012,84.993909 L 131.66012,20.867493 L 131.66012,20.867493 z M 169.10366,89.936822 C 169.10366,94.778397 169.7411,95.406625 174.67622,95.406625 L 187.3935,95.406625 L 187.3935,93.405719 C 182.02575,93.300129 180.96665,91.510405 180.96665,82.781468 L 180.96665,60.379972 C 180.96665,47.872807 176.6626,43.765051 163.61685,43.765051 C 151.475,43.765051 142.55508,49.239815 142.55508,56.706272 C 142.55508,60.068516 144.87205,62.380878 148.10496,62.380878 C 151.77086,62.380878 153.46138,60.168437 153.365,55.543712 C 153.2626,49.656862 155.48815,47.027374 160.86724,47.027374 C 166.78138,47.027374 169.10366,50.39635 169.10366,58.807098 L 169.10366,62.380878 C 147.17201,70.16446 140.46559,75.211547 140.46559,83.838436 C 140.46559,91.331822 145.81634,96.924223 153.05106,96.924223 C 158.1233,96.924223 160.65606,95.445956 169.10366,87.641113 L 169.10366,89.936822 z M 169.10366,65.866783 L 169.10366,83.84942 C 166.1496,86.796035 162.97834,88.375286 160.02429,88.375286 C 155.48815,88.375286 152.20917,85.010916 152.20917,80.274932 C 152.20917,75.121901 155.3737,71.965169 164.98279,67.756429 L 169.10366,65.866783 z " style="fill:#ffffff;fill-rule:nonzero" id="_74284312"/>
    </g>
</svg>