<?xml version="1.0" encoding="UTF-8" standalone="no"?>
<svg xmlns="http://www.w3.org/2000/svg" width="3798" height="447" viewBox="0 0 3798 447">

  <g transform="translate(1593,-75)">
    <path style="fill:#ffffff;fill-opacity:1;fill-rule:nonzero;stroke:none" d="M -1267.408,160.32953 C -1267.408,145.47531 -1255.3391,133.4906 -1240.5691,133.4906 C -1225.7149,133.4906 -1213.6459,145.47531 -1213.6459,160.32953 C -1213.6459,175.18375 -1225.7149,187.16824 -1240.5691,187.16824 C -1255.3391,187.16824 -1267.408,175.18375 -1267.408,160.32953" id="path2536"/>
    <path style="fill:#ffffff;fill-opacity:1;fill-rule:nonzero;stroke:none" d="M -1321.8454,130.03016 L -1300.9989,113.91003 L -1292.2214,121.92786 L -1338.7252,161.42669 C -1383.541,127.24513 -1442.7047,96.439525 -1501.8684,113.23484 C -1517.1446,118.38315 -1537.0628,130.62109 -1538.5819,148.93553 C -1537.5693,185.64912 -1497.3108,192.23229 -1472.3289,203.54181 C -1425.9094,217.8051 -1379.4899,230.97145 -1341.7636,266.25017 C -1324.9681,283.55194 -1318.8914,307.01491 -1323.449,331.91253 C -1329.0192,363.56228 -1358.0525,393.60821 -1389.1958,401.28855 C -1452.4106,415.55206 -1513.0934,394.70537 -1563.0576,361.53671 L -1583.5666,382.80514 L -1592.5973,375.12481 L -1545.4183,327.27067 C -1501.1089,358.41397 -1451.3977,391.16067 -1393.247,385.50591 C -1383.6255,382.46766 -1373.9196,377.31935 -1367.7584,367.6977 C -1359.0654,354.36282 -1362.1881,336.04816 -1370.3749,323.304 C -1413.6715,274.35248 -1482.963,283.04549 -1533.4336,247.85125 C -1560.0193,229.03014 -1578.8402,200.92531 -1574.2829,167.33467 C -1571.2444,135.17869 -1539.5948,106.14522 -1510.0551,96.439525 C -1446.2494,69.938082 -1373.4132,91.290998 -1321.8454,130.03016" id="path2538"/>
    <path style="fill:#ffffff;fill-opacity:1;fill-rule:nonzero;stroke:none" d="M 918.77877,385.50591 L 919.28522,386.51881 C 960.64067,388.03794 1006.8914,379.85115 1045.1241,371.15814 C 1043.605,374.36535 1031.7048,401.96374 1031.7048,401.96374 L 842.90427,401.96374 L 973.21609,106.48292 C 920.72008,106.48292 883.33131,101.33461 840.54099,127.83584 L 817.66895,141.2552 L 820.79169,87.239847 L 1046.3058,87.239847 L 918.77877,385.50591" id="path2540"/>
    <path style="fill:#ffffff;fill-opacity:1;fill-rule:nonzero;stroke:none" d="M -695.605,241.94327 C -703.28534,235.36009 -715.18557,229.95856 -725.90416,230.97145 C -738.14209,233.58774 -749.87358,242.7872 -755.9503,254.01246 C -773.84278,288.61599 -773.84278,342.7156 -748.35423,373.77443 C -740.6739,380.3576 -731.98088,384.49323 -720.84033,383.48034 C -704.46676,381.3705 -690.7097,365.08141 -686.15232,349.80522 C -677.1216,315.28596 -672.64848,270.63903 -695.605,241.94327 z M -627.41062,401.96374 L -681.004,401.96374 L -681.004,379.42918 C -703.96053,401.87926 -739.15477,412.51359 -770.80431,400.7821 C -804.90161,387.02504 -822.28785,351.32435 -824.81966,316.72082 C -828.87103,277.89718 -814.10107,240.25539 -778.90683,219.32445 C -757.55369,207.00203 -722.8659,202.95088 -700.92206,218.31155 L -681.004,233.08129 L -681.004,180.75403 L -700.66883,180.75403 L -700.66883,165.47784 L -627.41062,165.47784 L -627.41062,401.96374" id="path2542"/>
    <path style="fill:#ffffff;fill-opacity:1;fill-rule:nonzero;stroke:none" d="M 421.83755,165.47784 L 421.83755,247.85125 C 452.47441,220.33713 496.10866,191.13513 536.95787,211.9816 C 563.96555,228.8614 560.08314,259.75148 559.49243,292.16069 C 558.56401,344.57243 555.44128,402.30144 555.44128,402.30144 L 503.78899,401.96374 C 504.29544,355.03801 506.99621,310.55961 502.43861,263.12744 C 499.90658,253.42153 496.27762,242.7872 486.65597,237.63889 C 459.56403,229.03014 439.73024,250.8895 421.83755,269.28865 L 421.83755,402.30144 L 363.77105,402.30144 L 363.77105,180.75403 L 342.58688,180.75403 L 342.58688,165.47784 L 421.83755,165.47784" id="path2544"/>
    <path style="fill:#ffffff;fill-opacity:1;fill-rule:nonzero;stroke:none" d="M 1427.7892,203.11984 L 1480.7074,203.11984 L 1483.6611,218.39603 L 1427.7892,218.39603 L 1431.0807,401.96374 L 1373.0986,401.96374 L 1375.6304,218.39603 L 1339.4233,218.39603 L 1339.4233,203.11984 L 1375.6304,203.11984 L 1375.6304,194.84858 C 1375.6304,194.84858 1389.472,189.616 1401.7099,183.96124 C 1418.3365,176.36517 1427.7892,169.36025 1427.7892,169.36025 L 1427.7892,203.11984" id="path2546"/>
    <path style="fill:#ffffff;fill-opacity:1;fill-rule:nonzero;stroke:none" d="M 144.33369,224.30401 C 143.57423,225.31669 128.55127,245.48797 128.55127,245.48797 C 103.06272,225.56992 62.297986,211.13766 30.142,224.38828 C 23.052377,228.43943 18.494778,235.61332 17.904066,243.29365 C 17.397618,252.40885 22.545929,260.08897 30.142,264.64657 C 69.97832,283.04549 132.18024,279.50079 143.40527,335.03526 C 145.43085,356.89463 135.72516,375.29377 118.84536,388.54438 C 79.599751,418.67479 17.397618,411.50091 -25.898926,396.73095 C -26.067886,396.05576 -15.771048,363.4778 -15.855528,362.54939 C -2.0984663,371.41136 10.814659,376.22197 23.558825,380.3576 C 47.021797,386.51881 83.735382,395.21182 100.5307,370.73617 C 102.55627,365.58786 104.58185,358.49824 101.03715,353.34993 C 81.625326,327.35515 46.515349,331.91253 20.52057,318.7464 C 3.1343248,311.57251 -15.34908,298.91261 -19.906679,278.99434 C -26.067886,261.86153 -22.86067,237.63889 -9.6100569,223.3756 C 31.23916,186.15556 100.95267,200.84104 144.33369,224.30401" id="path2548"/>
    <path style="fill:#ffffff;fill-opacity:1;fill-rule:nonzero;stroke:none" d="M 333.13419,228.35516 L 321.57167,245.48797 C 305.62028,222.86915 269.83512,217.8051 254.98089,224.38828 C 217.76086,247.85125 217.76086,296.80255 224.42852,336.55461 C 228.9859,359.00468 245.35925,386.51881 270.76353,392.08909 C 286.63043,392.08909 307.4769,378.33202 315.15723,371.32688 C 314.14456,371.07366 334.31583,392.34231 334.31583,392.34231 C 334.31583,392.34231 321.48719,401.96374 310.0934,404.41128 C 274.39271,418.16835 229.49235,412.51359 201.47178,386.51881 C 171.2571,358.49824 160.20081,321.78465 167.29021,282.53926 C 173.45142,248.86393 205.0167,217.21439 237.67913,208.09919 C 269.83512,199.40618 308.65854,206.4958 333.13419,228.35516" id="path2550"/>
    <path style="fill:#ffffff;fill-opacity:1;fill-rule:nonzero;stroke:none" d="M 2104.1627,250.8895 C 2097.495,240.67736 2086.7765,229.95856 2076.1421,225.40117 C 2066.9427,222.3627 2055.7176,223.88183 2048.1216,228.43943 C 2017.9911,248.3577 2011.4082,282.53926 2011.9144,316.72082 C 2014.4464,347.77965 2023.5616,382.97389 2055.7176,395.71827 C 2073.1039,400.27587 2089.4772,393.0175 2099.6051,379.42918 C 2128.0474,340.94325 2127.0347,286.08396 2104.1627,250.8895 z M 2149.4848,239.15823 C 2151.0884,227.42675 2156.1523,214.17592 2168.8966,210.12477 C 2177.5054,207.59296 2187.7175,210.12477 2194.8914,215.18882 C 2201.0526,220.33713 2202.9937,227.42675 2204.5973,234.60064 C 2204.0911,246.33212 2197.0015,256.46 2186.2829,260.59541 C 2179.6152,262.62099 2171.0067,261.60831 2164.8455,260.08897 C 2177.0832,288.10954 2181.7253,330.47788 2165.3519,359.00468 C 2145.9401,392.59553 2111.3366,414.62364 2073.6101,416.05851 C 2059.7688,417.6619 2043.4797,418.67479 2036.8965,432.43185 C 2036.8965,436.48301 2040.4414,440.53416 2044.4926,442.05328 C 2074.1165,446.18892 2113.7841,431.41896 2132.1831,461.97155 C 2137.3314,471.17102 2135.2213,483.91518 2130.1575,492.6082 C 2107.201,523.16079 2063.398,525.6926 2029.2162,515.9869 C 2015.9656,511.4293 2004.5718,502.65181 1991.5744,491.51104 L 2011.6612,475.89736 C 2030.4823,493.70557 2057.2368,507.88438 2083.2315,499.19137 C 2089.3927,497.16579 2095.4695,492.01748 2097.495,485.43431 C 2099.0986,477.24774 2095.4695,470.15812 2088.2956,466.52894 C 2060.7815,456.90751 2005.247,475.89736 2005.7534,440.53416 C 2005.247,433.44453 2007.8633,426.86158 2012.8428,422.72594 C 2017.9911,418.16835 2023.5616,415.55206 2029.7226,413.02003 C 1994.5284,400.7821 1959.8404,365.08141 1956.2955,326.34225 C 1950.2187,280.4292 1971.5719,237.63889 2012.8428,216.20149 C 2051.16,196.87415 2106.1883,200.92531 2139.3569,229.45232 C 2142.9016,231.98413 2145.9401,235.61332 2149.4848,239.15823" id="path2552"/>
    <path style="fill:#ffffff;fill-opacity:1;fill-rule:nonzero;stroke:none" d="M -1222.5079,203.11984 C -1222.5079,203.11984 -1235.3363,324.48542 -1220.9885,368.71059 C -1216.3467,376.8129 -1208.2444,381.96121 -1198.032,379.85115 C -1177.6075,373.77443 -1159.2086,361.53671 -1142.9195,347.2732 L -1142.9195,218.39603 L -1173.5564,218.39603 L -1173.5564,203.11984 L -1084.853,203.11984 L -1084.853,401.87926 L -1142.9195,401.87926 L -1142.9195,371.24262 C -1154.1445,375.29377 -1165.876,386.01236 -1178.114,390.56996 C -1203.6025,401.87926 -1238.2903,419.18124 -1264.7918,398.25029 C -1284.2034,373.26819 -1283.6971,340.09931 -1284.7098,307.52136 C -1285.2163,277.39095 -1279.5615,246.92283 -1277.0295,218.39603 L -1306.5692,218.39603 L -1307.1599,203.11984 L -1222.5079,203.11984" id="path2554"/>
    <path style="fill:#ffffff;fill-opacity:1;fill-rule:nonzero;stroke:none" d="M 1919.8351,231.1402 C 1928.0219,247.42928 1930.5539,268.69772 1930.0475,289.12243 C 1928.0219,329.38072 1933.5922,362.2119 1930.0475,401.96374 C 1913.1677,403.48287 1872.7406,401.96374 1872.7406,401.96374 C 1872.7406,401.96374 1881.0117,305.91775 1873.3313,255.95355 C 1871.3058,248.86393 1860.5027,242.7872 1853.3288,239.66447 C 1826.8276,234.60064 1805.8966,253.42153 1788.5949,272.3269 L 1788.5949,401.96374 L 1732.4695,401.96374 L 1732.4695,218.39603 L 1710.1881,218.39603 L 1710.1881,203.11984 L 1788.5949,203.11984 L 1788.5949,249.37038 C 1815.6025,223.88183 1849.6996,196.45219 1888.5233,203.11984 C 1899.7483,206.1581 1914.2648,219.40871 1919.8351,231.1402" id="path2556"/>
    <path style="fill:#ffffff;fill-opacity:1;fill-rule:nonzero;stroke:none" d="M 1320.1804,203.11984 L 1320.1804,401.96374 L 1262.1982,401.96374 L 1262.1982,218.39603 L 1232.8275,218.39603 L 1232.8275,203.11984 L 1320.1804,203.11984" id="path2558"/>
    <path style="fill:#ffffff;fill-opacity:1;fill-rule:nonzero;stroke:none" d="M -1145.3671,160.32953 C -1145.3671,145.47531 -1133.2981,133.4906 -1118.4439,133.4906 C -1103.6741,133.4906 -1091.6049,145.47531 -1091.6049,160.32953 C -1091.6049,175.18375 -1103.6741,187.16824 -1118.4439,187.16824 C -1133.2981,187.16824 -1145.3671,175.18375 -1145.3671,160.32953" id="path2618"/>
    <path style="fill:#ffffff;fill-opacity:1;fill-rule:nonzero;stroke:none" d="M 1263.9708,160.32953 C 1263.9708,145.47531 1275.9553,133.4906 1290.7252,133.4906 C 1305.6637,133.4906 1317.6484,145.47531 1317.6484,160.32953 C 1317.6484,175.18375 1305.6637,187.16824 1290.7252,187.16824 C 1275.9553,187.16824 1263.9708,175.18375 1263.9708,160.32953" id="path2620"/>
    <path style="fill:#ffffff;fill-opacity:1;fill-rule:nonzero;stroke:none" d="M -315.21875,203.11984 C -315.21875,203.11984 -327.96292,324.48542 -313.61514,368.71059 C -309.05755,376.8129 -300.95524,381.96121 -290.7431,379.85115 C -270.31838,373.77443 -252.00394,361.53671 -235.63037,347.2732 L -235.63037,218.39603 L -266.26723,218.39603 L -266.26723,203.11984 L -177.56387,203.11984 L -177.56387,401.87926 L -235.63037,401.87926 L -235.63037,371.24262 C -246.85563,375.29377 -258.5869,386.01236 -270.82483,390.56996 C -296.31338,401.87926 -331.00139,419.18124 -357.50262,398.25029 C -376.82996,373.26819 -376.40799,340.09931 -377.42067,307.52136 C -377.84285,277.39095 -372.27236,246.92283 -369.74055,218.39603 L -399.28003,218.39603 L -399.78648,203.11984 L -315.21875,203.11984" id="path2622"/>
    <path style="fill:#ffffff;fill-opacity:1;fill-rule:nonzero;stroke:none" d="M 1543.669,203.11984 C 1543.669,203.11984 1530.7558,324.48542 1545.1881,368.71059 C 1549.7457,376.8129 1557.9323,381.96121 1568.0601,379.85115 C 1588.4848,373.77443 1606.7993,361.53671 1623.1729,347.2732 L 1623.1729,218.39603 L 1592.536,218.39603 L 1592.536,203.11984 L 1681.2394,203.11984 L 1681.2394,401.87926 L 1623.1729,401.87926 L 1623.1729,371.24262 C 1611.9476,375.29377 1600.2163,386.01236 1587.9784,390.56996 C 1562.4899,401.87926 1527.8018,419.18124 1501.3006,398.25029 C 1481.9733,373.26819 1482.3952,340.09931 1481.3826,307.52136 C 1480.8761,277.39095 1486.5309,246.92283 1489.0627,218.39603 L 1459.5232,218.39603 L 1459.0168,203.11984 L 1543.669,203.11984" id="path2624"/>
    <path style="fill:#ffffff;fill-opacity:1;fill-rule:nonzero;stroke:none" d="M -65.313279,203.11984 L -24.548542,203.11984 L -24.548542,218.39603 L -65.313279,218.39603 L -62.190543,401.96374 L -120.17256,401.96374 L -117.55628,218.39603 L -158.40549,218.39603 L -158.40549,203.11984 L -117.55628,203.11984 L -117.55628,194.84858 C -117.55628,194.84858 -103.71474,189.616 -91.477018,183.96124 C -74.850445,176.36517 -65.313279,169.36025 -65.313279,169.36025 L -65.313279,203.11984" id="path2626"/>
    <path style="fill:#ffffff;fill-opacity:1;fill-rule:nonzero;stroke:none" d="M -923.39767,241.94327 C -931.07801,235.36009 -942.97845,229.95856 -953.69704,230.97145 C -965.93498,233.58774 -977.66625,242.7872 -983.74297,254.01246 C -1001.6357,288.61599 -1001.6357,342.7156 -976.14712,373.77443 C -968.46678,380.3576 -959.85825,384.49323 -948.63299,383.48034 C -932.25965,381.3705 -918.50258,365.08141 -913.94499,349.80522 C -904.91448,315.28596 -900.44115,270.63903 -923.39767,241.94327 z M -855.20351,401.96374 L -908.88115,401.96374 L -908.88115,379.42918 C -931.7532,401.87926 -966.94766,412.51359 -998.59719,400.7821 C -1032.6945,387.02504 -1050.0807,351.32435 -1052.6125,316.72082 C -1056.6637,277.89718 -1041.894,240.25539 -1006.6995,219.32445 C -985.34658,207.00203 -950.65857,202.95088 -928.71494,218.31155 L -908.88115,233.08129 L -908.88115,180.75403 L -928.46172,180.75403 L -928.46172,165.47784 L -855.20351,165.47784 L -855.20351,401.96374" id="path2628"/>
    <path style="fill:#ffffff;fill-opacity:1;fill-rule:nonzero;stroke:none" d="M 1199.0679,254.68743 C 1193.9196,240.67736 1180.5845,225.40117 1163.9579,220.92784 C 1150.0321,216.45472 1132.4771,221.85625 1121.7583,233.08129 C 1093.6535,259.07629 1094.5819,290.38834 1103.4439,335.03526 L 1199.0679,254.68743 z M 1233.5027,253.42153 L 1113.656,356.6414 C 1118.1293,369.38579 1127.9195,384.49323 1144.2929,388.54438 C 1171.0475,393.0175 1193.3286,381.79246 1208.605,362.38064 L 1224.5564,379.59814 C 1197.5488,408.63118 1153.83,418.67479 1116.1038,410.48801 C 1082.9349,402.89216 1053.9861,370.82043 1044.8709,338.15822 C 1033.1394,297.39348 1043.183,254.43442 1075.8453,227.93298 C 1104.3723,203.54181 1152.0577,191.8948 1185.6485,210.80018 C 1200.9247,218.90226 1220.0833,234.34741 1233.5027,253.42153" id="path2630"/>
    <path style="fill:#ffffff;fill-opacity:1;fill-rule:nonzero;stroke:none" d="M 741.20331,254.68743 C 736.13948,240.67736 722.72012,225.40117 706.17781,220.92784 C 692.16753,216.45472 674.61254,221.85625 663.89395,233.08129 C 635.78911,259.07629 636.71753,290.38834 645.57929,335.03526 L 741.20331,254.68743 z M 775.63809,253.42153 L 655.87591,356.6414 C 660.26476,369.38579 670.13942,384.49323 686.4285,388.54438 C 713.18295,393.0175 735.46429,381.79246 750.74047,362.38064 L 766.69186,379.59814 C 739.68418,408.63118 695.96545,418.67479 658.32367,410.48801 C 625.15479,402.89216 596.20602,370.82043 587.00634,338.15822 C 575.27507,297.39348 585.40295,254.43442 617.9809,227.93298 C 646.59218,203.54181 694.10884,191.8948 727.86843,210.80018 C 743.14462,218.90226 762.21874,234.34741 775.63809,253.42153" id="path2632"/>
    <path style="fill:#ffffff;fill-opacity:1;fill-rule:nonzero;stroke:none" d="M -436.41559,254.68743 C -441.5639,240.67736 -454.89899,225.40117 -471.52556,220.92784 C -485.53585,216.45472 -503.09084,221.85625 -513.80943,233.08129 C -541.83,259.07629 -540.98606,290.38834 -532.03961,335.03526 L -436.41559,254.68743 z M -402.06528,253.42153 L -521.82747,356.6414 C -517.35435,369.38579 -507.56396,384.49323 -491.27487,388.54438 C -464.52042,393.0175 -442.15482,381.79246 -426.87864,362.38064 L -410.92725,379.59814 C -437.93493,408.63118 -481.65344,418.67479 -519.37992,410.48801 C -552.54859,402.89216 -581.49758,370.82043 -590.69704,338.15822 C -602.42852,297.39348 -592.30065,254.43442 -559.63821,227.93298 C -531.11141,203.54181 -483.51027,191.8948 -449.83516,210.80018 C -434.55897,218.90226 -415.40037,234.34741 -402.06528,253.42153" id="path2634"/>
  </g>
</svg>