<svg xmlns="http://www.w3.org/2000/svg" width="1200" height="225.048" viewBox="0 0 1200 225.048">
  <path fill="none" d="M0 0h1200v225.048H0z"/>
  <g fill="#ffffff">
    <path fill-rule="evenodd" clip-rule="evenodd" d="M1078.57 59.9c7.872 8.053 9.1 21.42 5.295 31.645-6.39 14.867-22.542 18.148-36.93 18.008l.018-58.08c11.545-1.09 23.735-.717 31.616 8.428zm22.077 2.43c5.295 9.948 5.834 25.504-1.782 34.643-5.022 5.867-11.403 11.18-18.19 13.5 4.085 3.82 5.163 9.408 8.287 13.908 10.186 17.2 22.144 35.89 39.93 47.34 4.076 2.05 9.24 3.54 13.847 2.46.68.55 0 1.24.12 1.91-12.08 3.28-26.88 3.42-37.6-3.01-18.05-12.54-26.49-31.49-36.82-48.82-1.6-3.27-3.39-6.54-5.29-9.67-5.41.27-10.6.81-15.74.81l.12 45.98c0 4.76 1.37 9.4 5.43 11.99 2.04 1.37 7.61 1.37 7.61 1.37l-.05 2.42-43.01.04V175c4.48.133 8.69-1.5 11.28-4.914 1.62-2.866 1.47-5.99 1.47-9.687l-.41-101.9c-.27-3.14-.95-5.86-3.26-7.91-2.85-1.1-9.54-1.84-9.54-1.84l.03-2.4s29.735.82 44.4-.14c14.81.55 30.972 2.04 39.13 16.11zm-338.05-2.43c7.874 8.053 9.1 21.42 5.297 31.645-6.39 14.867-22.542 18.148-36.93 18.008l.018-58.08c11.543-1.09 23.735-.717 31.616 8.428zm22.08 2.43c5.294 9.948 5.84 25.504-1.775 34.643-5.02 5.867-11.41 11.18-18.198 13.5 4.085 3.82 5.163 9.408 8.287 13.908 10.19 17.2 22.15 35.89 39.93 47.34 4.08 2.05 9.24 3.54 13.85 2.46.68.55 0 1.24.13 1.91-12.07 3.28-26.87 3.42-37.6-3.01-18.05-12.54-26.48-31.49-36.82-48.82-1.6-3.27-3.38-6.54-5.28-9.67-5.41.27-10.6.81-15.74.81l.13 45.98c0 4.76 1.38 9.4 5.43 11.99 2.04 1.37 7.61 1.37 7.61 1.37l-.03 2.42-43.02.04V175c4.48.133 8.69-1.5 11.29-4.914 1.63-2.866 1.48-5.99 1.48-9.687l-.4-101.9c-.26-3.14-.95-5.86-3.25-7.91-2.84-1.1-9.54-1.84-9.54-1.84l.04-2.4s29.73.82 44.4-.14c14.8.55 30.97 2.04 39.13 16.11z"/>
    <path d="M105.775 46.732c5.608.137 10.556 1.832 16.41 1.73.252-.415.548-.415.93-.142.69 8.41.374 18.44 2.402 26.61-.166.028.168-.17-2.403-.066-.53-8.946-6.783-16.227-14.832-19.335-9.504-4.23-21.744-2.72-29.1 4.75-6.134 6.64-6.4 16.84-2.97 24.55 2.296 5.72 8.28 8.84 12.916 12.24 15.632 9.66 39.717 16.83 42.984 38.43 2.173 14.67-3.812 27.58-15.234 36.26-15.773 12.24-37.023 5.33-55.927 4.62l-.81.4c-.13-9.52-1.07-19.42-2.3-28.78.53-.44 1.88 0 2.03 0 2.46 10.57 12.4 20.91 23.27 23.2 10.74 3.13 22.6.42 29.26-8.7 4.89-7.04 5.31-16.43 1.23-24.04-12.93-18.75-37.15-19.15-49.26-38.86-5.83-9.65-5.28-24.83.13-34.48 8.04-13.86 23.01-20.64 38.66-18.74l2.64.32zm875.642.253c-.273 7.76.82 15.783 2.296 23.242-.672.423-1.476.423-2.172.542-1.46-4.88-2.85-11.96-9.1-14.14-9.39-3.66-21.34-2.29-31.36-2.44v51.61c-.43.27 19.04.17 28.24-1.38 2.02-.42 4.51-1.49 5.6-3.38.86-2.06.88-5.12.88-7.14.8.11 2.75 0 2.75 0v32.25l-1.86-.14c-.74-7.33-4.22-9.88-9.9-11.57-7.46-2.21-25.52-.86-25.69-1.21l-.1 43.97c-.12 4.72 3.85 8.48 7.91 10.23 9.25 3.55 21.36 2.34 30.91.57 7.21-2.19 12.5-9.8 13.16-17.12l2.47.52c-1.64 8.42-4.07 17.28-4.91 25.82h-1.37s-79.86-.3-80.05-.14l-.08-2.43c4.26 1.11 7.58 0 10.96-2.83 3.228-2.71 3.44-6.566 3.44-6.566V56.63c-.3-3.25-2.92-5.143-6.113-6.66-2.312-1.094-6.514-1.044-6.514-1.044v-2.2s47.52-.83 70.636.25m-375.96 3.14c-2.85-.184-6.063.447-8.45 2.967-2.31 2.498-2.204 5.473-2.47 8.448v83.68c1.786 9.21 6.953 19 15.935 23.32 11.978 5.72 28.16 5.58 38.107-4.03 3.553-4.78 5.81-10.07 6.504-16.05V58.81c-.4-2.59-1.75-4.74-4.22-6.504-2.46-1.824-7.6-2.023-7.57-2.057l-.03-2.49 36.99-.21.05 2.72c-4.17-.24-8.11-.04-10.24 3.62-.735 1.31-1.09 3.68-1.09 3.68v75.52c0 18.5-8.28 37.49-26.23 44.29-19.47 5.57-44.36 4.21-57.57-12.65-7.36-9.76-7.71-22.41-7.99-35.02-.106-.33.28-47.95 0-71.17-.15-2.74-1.94-5.08-4.676-6.81-2.292-1.47-6.85-1.63-6.85-1.63l-.084-2.31 39.75-.27s.29 1.743.14 2.572m-126.1-2.356v3.04c-4.04-.354-6.66-.354-9.16 2.395-2.37 2.59-1.71 8.9-1.71 8.9v106.04c.66 2.193 1.46 4.63 3.75 5.86 2.47 1.64 5.22.97 7.79 1.504v2.294c-13.195-.397-27.988-.92-40.49-.266v-2.156c4.82-.25 10.173-.73 11.9-5.99.89-2.697.46-9.376.46-9.376V58.81c.11-1.558-.855-4.637-2.95-6.48-2.27-1.993-4.34-1.505-7.5-2.026.25-.183-.09-2.486-.09-2.486l37.994-.055zm-281.2.87l.05 1.975c-3.06-.15-6.51.17-8.64 3.04-1.55 2.1-1.4 6.16-1.4 6.49v77.97c-.37 10.476 1.67 21.23 10.77 27.89 8.75 6.61 21.112 8.54 31.59 4.2 8.18-2.586 13.59-11.545 15.11-19.575l.772-10.043V59.9c-.13-2.456-.7-5.108-2.46-6.873l.306.497c-2.53-2.544-7.88-2.226-7.88-2.226V48.63l34.347.124V50.8c-3.97-.758-7.35.85-9.31 4.344-.95 1.662-1.1 4.757-1.1 4.757v74.96c-.4 13.06-3.11 26.39-13.89 35.35-14.56 12.5-38.36 12.08-55.22 5.17-17.03-6.83-21.38-25.83-21.52-41.31l-.13-70.75c-.27-3.82.273-8.33-2.86-10.59-2.567-1.37-8.22-1.91-8.22-1.91V48.6s27.14.156 39.67.04"/>
    <path d="M538.643 48.245l.107 1.877s-5.34 1.073-6.78 2.185c-3.836 1.48-7.362 3.783-10.205 6.91l-36.07 46.59 14.292 17.1 35.395 40.616c7.06 6.38 14.565 13.873 24.48 10.73.382.822.382 1.767.68 2.736-14.133 2.29-32.61 5.71-43.383-6.11l-16.65-19.03-29.49-35.72-1.08-1.1 37.54-49.15c1.92-3.39 5.3-8.04 2.01-11.98-1.89-2.15-7.48-2.93-7.48-2.93v-2.62l36.61-.11zM193.775 33.722c0-4.086 3.33-7.388 7.427-7.388 4.084 0 7.393 3.302 7.393 7.388 0 4.07-3.31 7.363-7.393 7.363-4.098 0-7.427-3.294-7.427-7.363m28.893 0c0-4.086 3.31-7.388 7.393-7.388 4.07 0 7.4 3.302 7.4 7.388 0 4.07-3.33 7.363-7.39 7.363-4.08 0-7.39-3.294-7.39-7.363"/>
    <path fill-rule="evenodd" clip-rule="evenodd" d="M396.593 85.854c9.128 19.938 8.988 47.81-4.09 66-10.086 13.724-24.878 18.622-40.654 19.947 0 .23-14.32 1.41-19.59-1.8-2.76-1.7-3.39-3.99-4.25-7.15V58.98c.12-1.265-.39-3.423 1.09-3.995 26.92-2.964 56.19 4.37 67.48 30.874m-41.09-37.1c24.35 1.22 48.56 13.06 59.86 35.86 9.93 18.6 9.38 46.85-3.26 63.97-12.92 19.27-33.19 29.08-55.38 29.36l-61.86.08-.05-2.4s4 .08 5.65-.22c2.05-.41 3.87-1.83 4.97-3.05 5.29-3.66 3.69-10.75 4.52-16.45.2-.19 0-93.86 0-93.86.38-3.8-1.4-6.75-4.55-9.22-3.08-2.4-9.7-2.26-9.7-2.26l-.07-1.83h59.87z"/>
    <path d="M872.993 173.186c-1.914-1.368-3.405-2.545-3.505-4.998v-3.745h.033l-.06-101.935v-8.163c1.06-5.274 11.17-5.23 11.17-5.23v-2.038h-40.77v2.545c-.15 0 5.68-.584 8.34 1.36 1.92 1.366 3.41 2.543 3.51 4.99v105.355l.04 2.055v6.44c-1.06 5.278-11.15 5.228-11.15 5.228v2.04h40.76v-2.546c.15 0-5.67.58-8.33-1.358z"/>
  </g>
</svg>