<?xml version="1.0" encoding="utf-8" standalone="no"?>
<!DOCTYPE svg PUBLIC "-//W3C//DTD SVG 1.1//EN"
  "http://www.w3.org/Graphics/SVG/1.1/DTD/svg11.dtd">
<!-- Created with matplotlib (https://matplotlib.org/) -->
<svg height="327.915344pt" version="1.1" viewBox="0 0 506.976562 327.915344" width="506.976562pt" xmlns="http://www.w3.org/2000/svg" xmlns:xlink="http://www.w3.org/1999/xlink">
 <metadata>
  <rdf:RDF xmlns:cc="http://creativecommons.org/ns#" xmlns:dc="http://purl.org/dc/elements/1.1/" xmlns:rdf="http://www.w3.org/1999/02/22-rdf-syntax-ns#">
   <cc:Work>
    <dc:type rdf:resource="http://purl.org/dc/dcmitype/StillImage"/>
    <dc:date>2021-01-13T11:20:22.858869</dc:date>
    <dc:format>image/svg+xml</dc:format>
    <dc:creator>
     <cc:Agent>
      <dc:title>Matplotlib v3.3.2, https://matplotlib.org/</dc:title>
     </cc:Agent>
    </dc:creator>
   </cc:Work>
  </rdf:RDF>
 </metadata>
 <defs>
  <style type="text/css">*{stroke-linecap:butt;stroke-linejoin:round;}</style>
 </defs>
 <g id="figure_1">
  <g id="patch_1">
   <path d="M 0 327.915344 
L 506.976562 327.915344 
L 506.976562 0 
L 0 0 
z
" style="fill:#ffffff;"/>
  </g>
  <g id="axes_1">
   <g id="patch_2">
    <path d="M 25.92 290.88 
L 401.76 290.88 
L 401.76 57.6 
L 25.92 57.6 
z
" style="fill:none;"/>
   </g>
   <g id="matplotlib.axis_1">
    <g id="xtick_1">
     <g id="line2d_1"/>
     <g id="text_1">
      <!-- 20 -->
      <g style="fill:#767675;" transform="translate(99.205398 304.88)scale(0.14 -0.14)">
       <defs>
        <path d="M 52.484375 0 
L 5.90625 0 
L 5.90625 6.5 
L 30.515625 33.84375 
Q 35.984375 40.046875 38.0625 43.921875 
Q 40.140625 47.796875 40.140625 51.953125 
Q 40.140625 57.515625 36.765625 61.078125 
Q 33.40625 64.65625 27.78125 64.65625 
Q 21.046875 64.65625 17.3125 60.8125 
Q 13.578125 56.984375 13.578125 50.140625 
L 4.546875 50.140625 
Q 4.546875 59.96875 10.859375 66.015625 
Q 17.1875 72.078125 27.78125 72.078125 
Q 37.703125 72.078125 43.453125 66.875 
Q 49.21875 61.671875 49.21875 53.03125 
Q 49.21875 42.53125 35.84375 28.03125 
L 16.796875 7.375 
L 52.484375 7.375 
z
" id="Roboto-Regular-50"/>
        <path d="M 50.484375 30.328125 
Q 50.484375 14.453125 45.0625 6.734375 
Q 39.65625 -0.984375 28.125 -0.984375 
Q 16.75 -0.984375 11.28125 6.5625 
Q 5.8125 14.109375 5.609375 29.109375 
L 5.609375 41.15625 
Q 5.609375 56.84375 11.03125 64.453125 
Q 16.453125 72.078125 28.03125 72.078125 
Q 39.5 72.078125 44.921875 64.71875 
Q 50.34375 57.375 50.484375 42.046875 
z
M 41.453125 42.671875 
Q 41.453125 54.15625 38.234375 59.40625 
Q 35.015625 64.65625 28.03125 64.65625 
Q 21.09375 64.65625 17.921875 59.421875 
Q 14.75 54.203125 14.65625 43.359375 
L 14.65625 28.90625 
Q 14.65625 17.390625 18 11.890625 
Q 21.34375 6.390625 28.125 6.390625 
Q 34.8125 6.390625 38.0625 11.5625 
Q 41.3125 16.75 41.453125 27.875 
z
" id="Roboto-Regular-48"/>
       </defs>
       <use xlink:href="#Roboto-Regular-50"/>
       <use x="56.152344" xlink:href="#Roboto-Regular-48"/>
      </g>
     </g>
    </g>
    <g id="xtick_2">
     <g id="line2d_2"/>
     <g id="text_2">
      <!-- 40 -->
      <g style="fill:#767675;" transform="translate(184.62358 304.88)scale(0.14 -0.14)">
       <defs>
        <path d="M 44.046875 23.875 
L 53.90625 23.875 
L 53.90625 16.5 
L 44.046875 16.5 
L 44.046875 0 
L 34.96875 0 
L 34.96875 16.5 
L 2.59375 16.5 
L 2.59375 21.828125 
L 34.421875 71.09375 
L 44.046875 71.09375 
z
M 12.84375 23.875 
L 34.96875 23.875 
L 34.96875 58.734375 
L 33.890625 56.78125 
z
" id="Roboto-Regular-52"/>
       </defs>
       <use xlink:href="#Roboto-Regular-52"/>
       <use x="56.152344" xlink:href="#Roboto-Regular-48"/>
      </g>
     </g>
    </g>
    <g id="xtick_3">
     <g id="line2d_3"/>
     <g id="text_3">
      <!-- 60 -->
      <g style="fill:#767675;" transform="translate(270.041761 304.88)scale(0.14 -0.14)">
       <defs>
        <path d="M 41.359375 71.140625 
L 41.359375 63.484375 
L 39.703125 63.484375 
Q 29.15625 63.28125 22.90625 57.21875 
Q 16.65625 51.171875 15.671875 40.1875 
Q 21.296875 46.625 31 46.625 
Q 40.28125 46.625 45.828125 40.078125 
Q 51.375 33.546875 51.375 23.1875 
Q 51.375 12.203125 45.390625 5.609375 
Q 39.40625 -0.984375 29.34375 -0.984375 
Q 19.140625 -0.984375 12.796875 6.859375 
Q 6.453125 14.703125 6.453125 27.046875 
L 6.453125 30.515625 
Q 6.453125 50.140625 14.8125 60.515625 
Q 23.1875 70.90625 39.75 71.140625 
z
M 29.5 39.109375 
Q 24.859375 39.109375 20.953125 36.328125 
Q 17.046875 33.546875 15.53125 29.34375 
L 15.53125 26.03125 
Q 15.53125 17.234375 19.484375 11.859375 
Q 23.4375 6.5 29.34375 6.5 
Q 35.453125 6.5 38.9375 10.984375 
Q 42.4375 15.484375 42.4375 22.75 
Q 42.4375 30.078125 38.890625 34.59375 
Q 35.359375 39.109375 29.5 39.109375 
z
" id="Roboto-Regular-54"/>
       </defs>
       <use xlink:href="#Roboto-Regular-54"/>
       <use x="56.152344" xlink:href="#Roboto-Regular-48"/>
      </g>
     </g>
    </g>
    <g id="xtick_4">
     <g id="line2d_4"/>
     <g id="text_4">
      <!-- 80 -->
      <g style="fill:#767675;" transform="translate(355.459943 304.88)scale(0.14 -0.14)">
       <defs>
        <path d="M 49.03125 52.546875 
Q 49.03125 47.21875 46.21875 43.0625 
Q 43.40625 38.921875 38.625 36.578125 
Q 44.1875 34.1875 47.4375 29.59375 
Q 50.6875 25 50.6875 19.1875 
Q 50.6875 9.96875 44.453125 4.484375 
Q 38.234375 -0.984375 28.078125 -0.984375 
Q 17.828125 -0.984375 11.640625 4.515625 
Q 5.46875 10.015625 5.46875 19.1875 
Q 5.46875 24.953125 8.609375 29.59375 
Q 11.765625 34.234375 17.328125 36.625 
Q 12.59375 38.96875 9.859375 43.109375 
Q 7.125 47.265625 7.125 52.546875 
Q 7.125 61.53125 12.890625 66.796875 
Q 18.65625 72.078125 28.078125 72.078125 
Q 37.453125 72.078125 43.234375 66.796875 
Q 49.03125 61.53125 49.03125 52.546875 
z
M 41.65625 19.390625 
Q 41.65625 25.34375 37.859375 29.09375 
Q 34.078125 32.859375 27.96875 32.859375 
Q 21.875 32.859375 18.1875 29.140625 
Q 14.5 25.4375 14.5 19.375 
Q 14.5 13.328125 18.09375 9.859375 
Q 21.6875 6.390625 28.078125 6.390625 
Q 34.421875 6.390625 38.03125 9.875 
Q 41.65625 13.375 41.65625 19.390625 
z
M 28.078125 64.65625 
Q 22.75 64.65625 19.453125 61.359375 
Q 16.15625 58.0625 16.15625 52.390625 
Q 16.15625 46.96875 19.40625 43.625 
Q 22.65625 40.28125 28.078125 40.28125 
Q 33.5 40.28125 36.734375 43.625 
Q 39.984375 46.96875 39.984375 52.390625 
Q 39.984375 57.8125 36.609375 61.234375 
Q 33.25 64.65625 28.078125 64.65625 
z
" id="Roboto-Regular-56"/>
       </defs>
       <use xlink:href="#Roboto-Regular-56"/>
       <use x="56.152344" xlink:href="#Roboto-Regular-48"/>
      </g>
     </g>
    </g>
   </g>
   <g id="matplotlib.axis_2">
    <g id="ytick_1">
     <g id="line2d_5">
      <path clip-path="url(#pbb09fa5f08)" d="M 25.92 271.278071 
L 401.76 271.278071 
" style="fill:none;stroke:#cbcbcb;"/>
     </g>
     <g id="line2d_6"/>
     <g id="text_5">
      <!-- 2.0 -->
      <g style="fill:#767675;" transform="translate(3.0125 276.528071)scale(0.14 -0.14)">
       <defs>
        <path d="M 7.03125 4.734375 
Q 7.03125 7.078125 8.421875 8.640625 
Q 9.8125 10.203125 12.59375 10.203125 
Q 15.375 10.203125 16.8125 8.640625 
Q 18.265625 7.078125 18.265625 4.734375 
Q 18.265625 2.484375 16.8125 0.96875 
Q 15.375 -0.53125 12.59375 -0.53125 
Q 9.8125 -0.53125 8.421875 0.96875 
Q 7.03125 2.484375 7.03125 4.734375 
z
" id="Roboto-Regular-46"/>
       </defs>
       <use xlink:href="#Roboto-Regular-50"/>
       <use x="56.152344" xlink:href="#Roboto-Regular-46"/>
       <use x="82.470703" xlink:href="#Roboto-Regular-48"/>
      </g>
     </g>
    </g>
    <g id="ytick_2">
     <g id="line2d_7">
      <path clip-path="url(#pbb09fa5f08)" d="M 25.92 222.751567 
L 401.76 222.751567 
" style="fill:none;stroke:#cbcbcb;"/>
     </g>
     <g id="line2d_8"/>
     <g id="text_6">
      <!-- 2.2 -->
      <g style="fill:#767675;" transform="translate(3.0125 228.001567)scale(0.14 -0.14)">
       <use xlink:href="#Roboto-Regular-50"/>
       <use x="56.152344" xlink:href="#Roboto-Regular-46"/>
       <use x="82.470703" xlink:href="#Roboto-Regular-50"/>
      </g>
     </g>
    </g>
    <g id="ytick_3">
     <g id="line2d_9">
      <path clip-path="url(#pbb09fa5f08)" d="M 25.92 174.225062 
L 401.76 174.225062 
" style="fill:none;stroke:#cbcbcb;"/>
     </g>
     <g id="line2d_10"/>
     <g id="text_7">
      <!-- 2.4 -->
      <g style="fill:#767675;" transform="translate(3.0125 179.475062)scale(0.14 -0.14)">
       <use xlink:href="#Roboto-Regular-50"/>
       <use x="56.152344" xlink:href="#Roboto-Regular-46"/>
       <use x="82.470703" xlink:href="#Roboto-Regular-52"/>
      </g>
     </g>
    </g>
    <g id="ytick_4">
     <g id="line2d_11">
      <path clip-path="url(#pbb09fa5f08)" d="M 25.92 125.698558 
L 401.76 125.698558 
" style="fill:none;stroke:#cbcbcb;"/>
     </g>
     <g id="line2d_12"/>
     <g id="text_8">
      <!-- 2.6 -->
      <g style="fill:#767675;" transform="translate(3.0125 130.948558)scale(0.14 -0.14)">
       <use xlink:href="#Roboto-Regular-50"/>
       <use x="56.152344" xlink:href="#Roboto-Regular-46"/>
       <use x="82.470703" xlink:href="#Roboto-Regular-54"/>
      </g>
     </g>
    </g>
    <g id="ytick_5">
     <g id="line2d_13">
      <path clip-path="url(#pbb09fa5f08)" d="M 25.92 77.172053 
L 401.76 77.172053 
" style="fill:none;stroke:#cbcbcb;"/>
     </g>
     <g id="line2d_14"/>
     <g id="text_9">
      <!-- 2.8 -->
      <g style="fill:#767675;" transform="translate(3.0125 82.422053)scale(0.14 -0.14)">
       <use xlink:href="#Roboto-Regular-50"/>
       <use x="56.152344" xlink:href="#Roboto-Regular-46"/>
       <use x="82.470703" xlink:href="#Roboto-Regular-56"/>
      </g>
     </g>
    </g>
   </g>
   <g id="line2d_15">
    <path clip-path="url(#pbb09fa5f08)" d="M 43.003636 255.075662 
L 64.358182 258.675883 
L 85.712727 254.976568 
L 107.067273 254.87094 
L 128.421818 235.835764 
L 149.776364 241.883834 
L 171.130909 213.399424 
L 192.485455 193.43843 
L 213.84 160.585671 
L 235.194545 166.355187 
L 256.549091 195.574662 
L 277.903636 173.813166 
L 299.258182 144.600575 
L 320.612727 158.873829 
L 341.967273 166.783692 
L 363.321818 207.58119 
L 384.676364 242.419506 
" style="fill:none;stroke:#3863a2;stroke-width:2;"/>
   </g>
   <g id="line2d_16">
    <path clip-path="url(#pbb09fa5f08)" d="M 43.003636 255.481683 
L 64.358182 259.902096 
L 85.712727 256.07179 
L 107.067273 256.568311 
L 128.421818 223.661755 
L 149.776364 183.231094 
L 171.130909 131.983079 
L 192.485455 85.415822 
L 213.84 68.203636 
L 235.194545 124.271308 
L 256.549091 176.185036 
L 277.903636 183.465398 
L 299.258182 183.9955 
L 320.612727 194.948458 
L 341.967273 212.231547 
L 363.321818 259.367207 
L 384.676364 280.276364 
" style="fill:none;stroke:#f04451;stroke-width:2;"/>
   </g>
   <g id="line2d_17">
    <path clip-path="url(#pbb09fa5f08)" d="M 107.067273 290.88 
L 107.067273 57.6 
" style="fill:none;stroke:#96c342;stroke-dasharray:7.4,3.2;stroke-dashoffset:0;stroke-width:2;"/>
   </g>
   <g id="line2d_18">
    <path clip-path="url(#pbb09fa5f08)" d="M 269.361818 290.88 
L 269.361818 57.6 
" style="fill:none;stroke:#96c342;stroke-dasharray:7.4,3.2;stroke-dashoffset:0;stroke-width:2;"/>
   </g>
   <g id="patch_3">
    <path d="M 25.92 290.88 
L 25.92 57.6 
" style="fill:none;"/>
   </g>
   <g id="patch_4">
    <path d="M 401.76 290.88 
L 401.76 57.6 
" style="fill:none;"/>
   </g>
   <g id="patch_5">
    <path d="M 25.92 290.88 
L 401.76 290.88 
" style="fill:none;"/>
   </g>
   <g id="patch_6">
    <path d="M 25.92 57.6 
L 401.76 57.6 
" style="fill:none;"/>
   </g>
   <g id="text_10">
    <!-- No difference -->
    <g style="fill:#767675;" transform="translate(8.836364 245.990294)scale(0.14 -0.14)">
     <defs>
      <path d="M 62.890625 0 
L 53.46875 0 
L 17.671875 54.78125 
L 17.671875 0 
L 8.25 0 
L 8.25 71.09375 
L 17.671875 71.09375 
L 53.5625 16.0625 
L 53.5625 71.09375 
L 62.890625 71.09375 
z
" id="Roboto-Regular-78"/>
      <path d="M 4.4375 26.90625 
Q 4.4375 34.671875 7.484375 40.875 
Q 10.546875 47.078125 15.984375 50.4375 
Q 21.4375 53.8125 28.421875 53.8125 
Q 39.203125 53.8125 45.875 46.34375 
Q 52.546875 38.875 52.546875 26.46875 
L 52.546875 25.828125 
Q 52.546875 18.109375 49.578125 11.984375 
Q 46.625 5.859375 41.125 2.4375 
Q 35.640625 -0.984375 28.515625 -0.984375 
Q 17.78125 -0.984375 11.109375 6.484375 
Q 4.4375 13.96875 4.4375 26.265625 
z
M 13.53125 25.828125 
Q 13.53125 17.046875 17.609375 11.71875 
Q 21.6875 6.390625 28.515625 6.390625 
Q 35.40625 6.390625 39.453125 11.78125 
Q 43.5 17.1875 43.5 26.90625 
Q 43.5 35.59375 39.375 40.984375 
Q 35.25 46.390625 28.421875 46.390625 
Q 21.734375 46.390625 17.625 41.0625 
Q 13.53125 35.75 13.53125 25.828125 
z
" id="Roboto-Regular-111"/>
      <path id="Roboto-Regular-32"/>
      <path d="M 4.640625 26.859375 
Q 4.640625 39.015625 10.390625 46.40625 
Q 16.15625 53.8125 25.484375 53.8125 
Q 34.765625 53.8125 40.1875 47.46875 
L 40.1875 75 
L 49.21875 75 
L 49.21875 0 
L 40.921875 0 
L 40.484375 5.671875 
Q 35.0625 -0.984375 25.390625 -0.984375 
Q 16.21875 -0.984375 10.421875 6.53125 
Q 4.640625 14.0625 4.640625 26.171875 
z
M 13.671875 25.828125 
Q 13.671875 16.84375 17.375 11.765625 
Q 21.09375 6.6875 27.640625 6.6875 
Q 36.234375 6.6875 40.1875 14.40625 
L 40.1875 38.671875 
Q 36.140625 46.140625 27.734375 46.140625 
Q 21.09375 46.140625 17.375 41.015625 
Q 13.671875 35.890625 13.671875 25.828125 
z
" id="Roboto-Regular-100"/>
      <path d="M 16.65625 0 
L 7.625 0 
L 7.625 52.828125 
L 16.65625 52.828125 
z
M 6.890625 66.84375 
Q 6.890625 69.046875 8.234375 70.5625 
Q 9.578125 72.078125 12.203125 72.078125 
Q 14.84375 72.078125 16.203125 70.5625 
Q 17.578125 69.046875 17.578125 66.84375 
Q 17.578125 64.65625 16.203125 63.1875 
Q 14.84375 61.71875 12.203125 61.71875 
Q 9.578125 61.71875 8.234375 63.1875 
Q 6.890625 64.65625 6.890625 66.84375 
z
" id="Roboto-Regular-105"/>
      <path d="M 11.28125 0 
L 11.28125 45.84375 
L 2.9375 45.84375 
L 2.9375 52.828125 
L 11.28125 52.828125 
L 11.28125 58.25 
Q 11.28125 66.75 15.8125 71.390625 
Q 20.359375 76.03125 28.65625 76.03125 
Q 31.78125 76.03125 34.859375 75.203125 
L 34.375 67.875 
Q 32.078125 68.3125 29.5 68.3125 
Q 25.09375 68.3125 22.703125 65.75 
Q 20.3125 63.1875 20.3125 58.40625 
L 20.3125 52.828125 
L 31.59375 52.828125 
L 31.59375 45.84375 
L 20.3125 45.84375 
L 20.3125 0 
z
" id="Roboto-Regular-102"/>
      <path d="M 28.765625 -0.984375 
Q 18.015625 -0.984375 11.28125 6.078125 
Q 4.546875 13.140625 4.546875 24.953125 
L 4.546875 26.609375 
Q 4.546875 34.46875 7.546875 40.640625 
Q 10.546875 46.828125 15.9375 50.3125 
Q 21.34375 53.8125 27.640625 53.8125 
Q 37.9375 53.8125 43.640625 47.015625 
Q 49.359375 40.234375 49.359375 27.59375 
L 49.359375 23.828125 
L 13.578125 23.828125 
Q 13.765625 16.015625 18.140625 11.203125 
Q 22.515625 6.390625 29.25 6.390625 
Q 34.03125 6.390625 37.34375 8.34375 
Q 40.671875 10.296875 43.171875 13.53125 
L 48.6875 9.234375 
Q 42.046875 -0.984375 28.765625 -0.984375 
z
M 27.640625 46.390625 
Q 22.171875 46.390625 18.453125 42.40625 
Q 14.75 38.421875 13.875 31.25 
L 40.328125 31.25 
L 40.328125 31.9375 
Q 39.9375 38.8125 36.609375 42.59375 
Q 33.296875 46.390625 27.640625 46.390625 
z
" id="Roboto-Regular-101"/>
      <path d="M 32.375 44.734375 
Q 30.328125 45.0625 27.9375 45.0625 
Q 19.046875 45.0625 15.875 37.5 
L 15.875 0 
L 6.84375 0 
L 6.84375 52.828125 
L 15.625 52.828125 
L 15.765625 46.734375 
Q 20.21875 53.8125 28.375 53.8125 
Q 31 53.8125 32.375 53.125 
z
" id="Roboto-Regular-114"/>
      <path d="M 15.375 52.828125 
L 15.671875 46.1875 
Q 21.734375 53.8125 31.5 53.8125 
Q 48.25 53.8125 48.390625 34.90625 
L 48.390625 0 
L 39.359375 0 
L 39.359375 34.96875 
Q 39.3125 40.671875 36.75 43.40625 
Q 34.1875 46.140625 28.765625 46.140625 
Q 24.359375 46.140625 21.03125 43.796875 
Q 17.71875 41.453125 15.875 37.640625 
L 15.875 0 
L 6.84375 0 
L 6.84375 52.828125 
z
" id="Roboto-Regular-110"/>
      <path d="M 28.03125 6.390625 
Q 32.859375 6.390625 36.46875 9.3125 
Q 40.09375 12.25 40.484375 16.65625 
L 49.03125 16.65625 
Q 48.78125 12.109375 45.890625 8 
Q 43.015625 3.90625 38.203125 1.453125 
Q 33.40625 -0.984375 28.03125 -0.984375 
Q 17.234375 -0.984375 10.859375 6.21875 
Q 4.5 13.421875 4.5 25.921875 
L 4.5 27.4375 
Q 4.5 35.15625 7.328125 41.15625 
Q 10.15625 47.171875 15.453125 50.484375 
Q 20.75 53.8125 27.984375 53.8125 
Q 36.859375 53.8125 42.75 48.484375 
Q 48.640625 43.171875 49.03125 34.671875 
L 40.484375 34.671875 
Q 40.09375 39.796875 36.59375 43.09375 
Q 33.109375 46.390625 27.984375 46.390625 
Q 21.09375 46.390625 17.3125 41.421875 
Q 13.53125 36.46875 13.53125 27.09375 
L 13.53125 25.390625 
Q 13.53125 16.265625 17.28125 11.328125 
Q 21.046875 6.390625 28.03125 6.390625 
z
" id="Roboto-Regular-99"/>
     </defs>
     <use xlink:href="#Roboto-Regular-78"/>
     <use x="71.289062" xlink:href="#Roboto-Regular-111"/>
     <use x="128.320312" xlink:href="#Roboto-Regular-32"/>
     <use x="153.076172" xlink:href="#Roboto-Regular-100"/>
     <use x="209.472656" xlink:href="#Roboto-Regular-105"/>
     <use x="233.740234" xlink:href="#Roboto-Regular-102"/>
     <use x="268.457031" xlink:href="#Roboto-Regular-102"/>
     <use x="303.173828" xlink:href="#Roboto-Regular-101"/>
     <use x="356.152344" xlink:href="#Roboto-Regular-114"/>
     <use x="389.990234" xlink:href="#Roboto-Regular-101"/>
     <use x="442.96875" xlink:href="#Roboto-Regular-110"/>
     <use x="498.144531" xlink:href="#Roboto-Regular-99"/>
     <use x="550.488281" xlink:href="#Roboto-Regular-101"/>
    </g>
   </g>
   <g id="text_11">
    <!-- Women do more trips -->
    <g style="fill:#767675;" transform="translate(115.609091 61.589577)scale(0.14 -0.14)">
     <defs>
      <path d="M 23.578125 22.40625 
L 24.953125 13.03125 
L 26.953125 21.484375 
L 41.015625 71.09375 
L 48.921875 71.09375 
L 62.640625 21.484375 
L 64.59375 12.890625 
L 66.109375 22.46875 
L 77.15625 71.09375 
L 86.578125 71.09375 
L 69.34375 0 
L 60.796875 0 
L 46.140625 51.8125 
L 45.015625 57.234375 
L 43.890625 51.8125 
L 28.71875 0 
L 20.171875 0 
L 2.984375 71.09375 
L 12.359375 71.09375 
z
" id="Roboto-Regular-87"/>
      <path d="M 15.328125 52.828125 
L 15.578125 46.96875 
Q 21.390625 53.8125 31.25 53.8125 
Q 42.328125 53.8125 46.34375 45.3125 
Q 48.96875 49.125 53.1875 51.46875 
Q 57.421875 53.8125 63.1875 53.8125 
Q 80.5625 53.8125 80.859375 35.40625 
L 80.859375 0 
L 71.828125 0 
L 71.828125 34.859375 
Q 71.828125 40.53125 69.234375 43.328125 
Q 66.65625 46.140625 60.546875 46.140625 
Q 55.515625 46.140625 52.1875 43.140625 
Q 48.875 40.140625 48.34375 35.0625 
L 48.34375 0 
L 39.265625 0 
L 39.265625 34.625 
Q 39.265625 46.140625 27.984375 46.140625 
Q 19.09375 46.140625 15.828125 38.578125 
L 15.828125 0 
L 6.78125 0 
L 6.78125 52.828125 
z
" id="Roboto-Regular-109"/>
      <path d="M 19.09375 65.625 
L 19.09375 52.828125 
L 28.953125 52.828125 
L 28.953125 45.84375 
L 19.09375 45.84375 
L 19.09375 13.09375 
Q 19.09375 9.90625 20.40625 8.3125 
Q 21.734375 6.734375 24.90625 6.734375 
Q 26.46875 6.734375 29.203125 7.328125 
L 29.203125 0 
Q 25.640625 -0.984375 22.265625 -0.984375 
Q 16.21875 -0.984375 13.140625 2.671875 
Q 10.0625 6.34375 10.0625 13.09375 
L 10.0625 45.84375 
L 0.4375 45.84375 
L 0.4375 52.828125 
L 10.0625 52.828125 
L 10.0625 65.625 
z
" id="Roboto-Regular-116"/>
      <path d="M 51.46875 25.828125 
Q 51.46875 13.765625 45.953125 6.390625 
Q 40.4375 -0.984375 31 -0.984375 
Q 21.390625 -0.984375 15.875 5.125 
L 15.875 -20.3125 
L 6.84375 -20.3125 
L 6.84375 52.828125 
L 15.09375 52.828125 
L 15.53125 46.96875 
Q 21.046875 53.8125 30.859375 53.8125 
Q 40.375 53.8125 45.921875 46.625 
Q 51.46875 39.453125 51.46875 26.65625 
z
M 42.4375 26.859375 
Q 42.4375 35.796875 38.625 40.96875 
Q 34.8125 46.140625 28.171875 46.140625 
Q 19.96875 46.140625 15.875 38.875 
L 15.875 13.625 
Q 19.921875 6.390625 28.265625 6.390625 
Q 34.765625 6.390625 38.59375 11.546875 
Q 42.4375 16.703125 42.4375 26.859375 
z
" id="Roboto-Regular-112"/>
      <path d="M 37.59375 14.015625 
Q 37.59375 17.671875 34.828125 19.703125 
Q 32.078125 21.734375 25.21875 23.1875 
Q 18.359375 24.65625 14.328125 26.703125 
Q 10.296875 28.765625 8.375 31.59375 
Q 6.453125 34.421875 6.453125 38.328125 
Q 6.453125 44.828125 11.9375 49.3125 
Q 17.4375 53.8125 25.984375 53.8125 
Q 34.96875 53.8125 40.546875 49.171875 
Q 46.140625 44.53125 46.140625 37.3125 
L 37.0625 37.3125 
Q 37.0625 41.015625 33.90625 43.703125 
Q 30.765625 46.390625 25.984375 46.390625 
Q 21.046875 46.390625 18.265625 44.234375 
Q 15.484375 42.09375 15.484375 38.625 
Q 15.484375 35.359375 18.0625 33.6875 
Q 20.65625 32.03125 27.421875 30.515625 
Q 34.1875 29 38.375 26.90625 
Q 42.578125 24.8125 44.59375 21.84375 
Q 46.625 18.890625 46.625 14.65625 
Q 46.625 7.5625 40.953125 3.28125 
Q 35.296875 -0.984375 26.265625 -0.984375 
Q 19.921875 -0.984375 15.03125 1.265625 
Q 10.15625 3.515625 7.390625 7.546875 
Q 4.640625 11.578125 4.640625 16.265625 
L 13.671875 16.265625 
Q 13.921875 11.71875 17.3125 9.046875 
Q 20.703125 6.390625 26.265625 6.390625 
Q 31.390625 6.390625 34.484375 8.46875 
Q 37.59375 10.546875 37.59375 14.015625 
z
" id="Roboto-Regular-115"/>
     </defs>
     <use xlink:href="#Roboto-Regular-87"/>
     <use x="88.720703" xlink:href="#Roboto-Regular-111"/>
     <use x="145.751953" xlink:href="#Roboto-Regular-109"/>
     <use x="233.398438" xlink:href="#Roboto-Regular-101"/>
     <use x="286.376953" xlink:href="#Roboto-Regular-110"/>
     <use x="341.552734" xlink:href="#Roboto-Regular-32"/>
     <use x="366.308594" xlink:href="#Roboto-Regular-100"/>
     <use x="422.705078" xlink:href="#Roboto-Regular-111"/>
     <use x="479.736328" xlink:href="#Roboto-Regular-32"/>
     <use x="504.492188" xlink:href="#Roboto-Regular-109"/>
     <use x="592.138672" xlink:href="#Roboto-Regular-111"/>
     <use x="649.169922" xlink:href="#Roboto-Regular-114"/>
     <use x="683.007812" xlink:href="#Roboto-Regular-101"/>
     <use x="735.986328" xlink:href="#Roboto-Regular-32"/>
     <use x="760.742188" xlink:href="#Roboto-Regular-116"/>
     <use x="793.408203" xlink:href="#Roboto-Regular-114"/>
     <use x="827.246094" xlink:href="#Roboto-Regular-105"/>
     <use x="851.513672" xlink:href="#Roboto-Regular-112"/>
     <use x="907.617188" xlink:href="#Roboto-Regular-115"/>
    </g>
   </g>
   <g id="text_12">
    <!-- Women's trip counts -->
    <g style="fill:#767675;" transform="translate(363.321818 145.995873)scale(0.14 -0.14)">
     <defs>
      <path d="M 12.359375 69.578125 
L 11.328125 51.609375 
L 5.03125 51.609375 
L 5.078125 75 
L 12.359375 75 
z
" id="Roboto-Regular-39"/>
      <path d="M 39.453125 5.21875 
Q 34.1875 -0.984375 23.96875 -0.984375 
Q 15.53125 -0.984375 11.109375 3.921875 
Q 6.6875 8.84375 6.640625 18.453125 
L 6.640625 52.828125 
L 15.671875 52.828125 
L 15.671875 18.703125 
Q 15.671875 6.6875 25.4375 6.6875 
Q 35.796875 6.6875 39.203125 14.40625 
L 39.203125 52.828125 
L 48.25 52.828125 
L 48.25 0 
L 39.65625 0 
z
" id="Roboto-Regular-117"/>
     </defs>
     <use xlink:href="#Roboto-Regular-87"/>
     <use x="88.720703" xlink:href="#Roboto-Regular-111"/>
     <use x="145.751953" xlink:href="#Roboto-Regular-109"/>
     <use x="233.398438" xlink:href="#Roboto-Regular-101"/>
     <use x="286.376953" xlink:href="#Roboto-Regular-110"/>
     <use x="341.552734" xlink:href="#Roboto-Regular-39"/>
     <use x="358.984375" xlink:href="#Roboto-Regular-115"/>
     <use x="410.546875" xlink:href="#Roboto-Regular-32"/>
     <use x="435.302734" xlink:href="#Roboto-Regular-116"/>
     <use x="467.96875" xlink:href="#Roboto-Regular-114"/>
     <use x="501.806641" xlink:href="#Roboto-Regular-105"/>
     <use x="526.074219" xlink:href="#Roboto-Regular-112"/>
     <use x="582.177734" xlink:href="#Roboto-Regular-32"/>
     <use x="606.933594" xlink:href="#Roboto-Regular-99"/>
     <use x="659.277344" xlink:href="#Roboto-Regular-111"/>
     <use x="716.308594" xlink:href="#Roboto-Regular-117"/>
     <use x="771.435547" xlink:href="#Roboto-Regular-110"/>
     <use x="826.611328" xlink:href="#Roboto-Regular-116"/>
     <use x="859.277344" xlink:href="#Roboto-Regular-115"/>
    </g>
    <!-- decrease rapidly -->
    <g style="fill:#767675;" transform="translate(363.321818 161.439623)scale(0.14 -0.14)">
     <defs>
      <path d="M 39.453125 0 
Q 38.671875 1.5625 38.1875 5.5625 
Q 31.890625 -0.984375 23.140625 -0.984375 
Q 15.328125 -0.984375 10.328125 3.4375 
Q 5.328125 7.859375 5.328125 14.65625 
Q 5.328125 22.90625 11.59375 27.46875 
Q 17.875 32.03125 29.25 32.03125 
L 38.03125 32.03125 
L 38.03125 36.1875 
Q 38.03125 40.921875 35.203125 43.71875 
Q 32.375 46.53125 26.859375 46.53125 
Q 22.015625 46.53125 18.75 44.09375 
Q 15.484375 41.65625 15.484375 38.1875 
L 6.390625 38.1875 
Q 6.390625 42.140625 9.203125 45.828125 
Q 12.015625 49.515625 16.8125 51.65625 
Q 21.625 53.8125 27.390625 53.8125 
Q 36.53125 53.8125 41.703125 49.234375 
Q 46.875 44.671875 47.078125 36.671875 
L 47.078125 12.359375 
Q 47.078125 5.078125 48.921875 0.78125 
L 48.921875 0 
z
M 24.46875 6.890625 
Q 28.71875 6.890625 32.515625 9.078125 
Q 36.328125 11.28125 38.03125 14.796875 
L 38.03125 25.640625 
L 30.953125 25.640625 
Q 14.359375 25.640625 14.359375 15.921875 
Q 14.359375 11.671875 17.1875 9.28125 
Q 20.015625 6.890625 24.46875 6.890625 
z
" id="Roboto-Regular-97"/>
      <path d="M 16.65625 0 
L 7.625 0 
L 7.625 75 
L 16.65625 75 
z
" id="Roboto-Regular-108"/>
      <path d="M 24.125 13.234375 
L 36.421875 52.828125 
L 46.09375 52.828125 
L 24.859375 -8.15625 
Q 19.921875 -21.34375 9.1875 -21.34375 
L 7.46875 -21.1875 
L 4.109375 -20.5625 
L 4.109375 -13.234375 
L 6.546875 -13.421875 
Q 11.140625 -13.421875 13.703125 -11.5625 
Q 16.265625 -9.71875 17.921875 -4.78125 
L 19.921875 0.59375 
L 1.078125 52.828125 
L 10.9375 52.828125 
z
" id="Roboto-Regular-121"/>
     </defs>
     <use xlink:href="#Roboto-Regular-100"/>
     <use x="56.396484" xlink:href="#Roboto-Regular-101"/>
     <use x="109.375" xlink:href="#Roboto-Regular-99"/>
     <use x="161.71875" xlink:href="#Roboto-Regular-114"/>
     <use x="195.556641" xlink:href="#Roboto-Regular-101"/>
     <use x="248.535156" xlink:href="#Roboto-Regular-97"/>
     <use x="302.929688" xlink:href="#Roboto-Regular-115"/>
     <use x="354.492188" xlink:href="#Roboto-Regular-101"/>
     <use x="407.470703" xlink:href="#Roboto-Regular-32"/>
     <use x="432.226562" xlink:href="#Roboto-Regular-114"/>
     <use x="466.064453" xlink:href="#Roboto-Regular-97"/>
     <use x="520.458984" xlink:href="#Roboto-Regular-112"/>
     <use x="576.5625" xlink:href="#Roboto-Regular-105"/>
     <use x="600.830078" xlink:href="#Roboto-Regular-100"/>
     <use x="657.226562" xlink:href="#Roboto-Regular-108"/>
     <use x="681.494141" xlink:href="#Roboto-Regular-121"/>
    </g>
   </g>
   <g id="text_13">
    <!-- Daily average of trip count per age -->
    <g style="fill:#767675;opacity:0.85;" transform="translate(0 35.81325)scale(0.168 -0.168)">
     <defs>
      <path d="M 8.25 0 
L 8.25 71.09375 
L 28.328125 71.09375 
Q 37.59375 71.09375 44.71875 66.984375 
Q 51.859375 62.890625 55.734375 55.3125 
Q 59.625 47.75 59.671875 37.9375 
L 59.671875 33.40625 
Q 59.671875 23.34375 55.78125 15.765625 
Q 51.90625 8.203125 44.703125 4.140625 
Q 37.5 0.09375 27.9375 0 
z
M 17.625 63.375 
L 17.625 7.671875 
L 27.484375 7.671875 
Q 38.328125 7.671875 44.359375 14.40625 
Q 50.390625 21.140625 50.390625 33.59375 
L 50.390625 37.75 
Q 50.390625 49.859375 44.703125 56.5625 
Q 39.015625 63.28125 28.5625 63.375 
z
" id="Roboto-Regular-68"/>
      <path d="M 24.265625 12.25 
L 37.359375 52.828125 
L 46.578125 52.828125 
L 27.640625 0 
L 20.75 0 
L 1.609375 52.828125 
L 10.84375 52.828125 
z
" id="Roboto-Regular-118"/>
      <path d="M 4.6875 26.859375 
Q 4.6875 39.203125 10.390625 46.5 
Q 16.109375 53.8125 25.53125 53.8125 
Q 35.203125 53.8125 40.625 46.96875 
L 41.0625 52.828125 
L 49.3125 52.828125 
L 49.3125 1.265625 
Q 49.3125 -8.984375 43.234375 -14.890625 
Q 37.15625 -20.796875 26.90625 -20.796875 
Q 21.1875 -20.796875 15.71875 -18.359375 
Q 10.25 -15.921875 7.375 -11.671875 
L 12.0625 -6.25 
Q 17.875 -13.421875 26.265625 -13.421875 
Q 32.859375 -13.421875 36.546875 -9.703125 
Q 40.234375 -6 40.234375 0.734375 
L 40.234375 5.28125 
Q 34.8125 -0.984375 25.4375 -0.984375 
Q 16.15625 -0.984375 10.421875 6.484375 
Q 4.6875 13.96875 4.6875 26.859375 
z
M 13.765625 25.828125 
Q 13.765625 16.890625 17.421875 11.78125 
Q 21.09375 6.6875 27.6875 6.6875 
Q 36.234375 6.6875 40.234375 14.453125 
L 40.234375 38.578125 
Q 36.078125 46.140625 27.78125 46.140625 
Q 21.1875 46.140625 17.46875 41.015625 
Q 13.765625 35.890625 13.765625 25.828125 
z
" id="Roboto-Regular-103"/>
     </defs>
     <use xlink:href="#Roboto-Regular-68"/>
     <use x="65.576172" xlink:href="#Roboto-Regular-97"/>
     <use x="119.970703" xlink:href="#Roboto-Regular-105"/>
     <use x="144.238281" xlink:href="#Roboto-Regular-108"/>
     <use x="168.505859" xlink:href="#Roboto-Regular-121"/>
     <use x="215.820312" xlink:href="#Roboto-Regular-32"/>
     <use x="240.576172" xlink:href="#Roboto-Regular-97"/>
     <use x="294.970703" xlink:href="#Roboto-Regular-118"/>
     <use x="343.408203" xlink:href="#Roboto-Regular-101"/>
     <use x="396.386719" xlink:href="#Roboto-Regular-114"/>
     <use x="430.224609" xlink:href="#Roboto-Regular-97"/>
     <use x="484.619141" xlink:href="#Roboto-Regular-103"/>
     <use x="540.722656" xlink:href="#Roboto-Regular-101"/>
     <use x="593.701172" xlink:href="#Roboto-Regular-32"/>
     <use x="618.457031" xlink:href="#Roboto-Regular-111"/>
     <use x="675.488281" xlink:href="#Roboto-Regular-102"/>
     <use x="710.205078" xlink:href="#Roboto-Regular-32"/>
     <use x="734.960938" xlink:href="#Roboto-Regular-116"/>
     <use x="767.626953" xlink:href="#Roboto-Regular-114"/>
     <use x="801.464844" xlink:href="#Roboto-Regular-105"/>
     <use x="825.732422" xlink:href="#Roboto-Regular-112"/>
     <use x="881.835938" xlink:href="#Roboto-Regular-32"/>
     <use x="906.591797" xlink:href="#Roboto-Regular-99"/>
     <use x="958.935547" xlink:href="#Roboto-Regular-111"/>
     <use x="1015.966797" xlink:href="#Roboto-Regular-117"/>
     <use x="1071.09375" xlink:href="#Roboto-Regular-110"/>
     <use x="1126.269531" xlink:href="#Roboto-Regular-116"/>
     <use x="1158.935547" xlink:href="#Roboto-Regular-32"/>
     <use x="1183.691406" xlink:href="#Roboto-Regular-112"/>
     <use x="1239.794922" xlink:href="#Roboto-Regular-101"/>
     <use x="1292.773438" xlink:href="#Roboto-Regular-114"/>
     <use x="1326.611328" xlink:href="#Roboto-Regular-32"/>
     <use x="1351.367188" xlink:href="#Roboto-Regular-97"/>
     <use x="1405.761719" xlink:href="#Roboto-Regular-103"/>
     <use x="1461.865234" xlink:href="#Roboto-Regular-101"/>
    </g>
   </g>
   <g id="text_14">
    <!-- Trips by Age and Gender -->
    <g style="fill:#767675;" transform="translate(0 15.12)scale(0.2016 -0.2016)">
     <defs>
      <path d="M 59.859375 59.234375 
L 38.09375 59.234375 
L 38.09375 0 
L 23.4375 0 
L 23.4375 59.234375 
L 1.953125 59.234375 
L 1.953125 71.09375 
L 59.859375 71.09375 
z
" id="Roboto-Bold-84"/>
      <path d="M 35.109375 39.59375 
Q 32.234375 39.984375 30.03125 39.984375 
Q 22.015625 39.984375 19.53125 34.578125 
L 19.53125 0 
L 5.421875 0 
L 5.421875 52.828125 
L 18.75 52.828125 
L 19.140625 46.53125 
Q 23.390625 53.8125 30.90625 53.8125 
Q 33.25 53.8125 35.296875 53.171875 
z
" id="Roboto-Bold-114"/>
      <path d="M 20.3125 0 
L 6.15625 0 
L 6.15625 52.828125 
L 20.3125 52.828125 
z
M 5.328125 66.5 
Q 5.328125 69.671875 7.453125 71.71875 
Q 9.578125 73.78125 13.234375 73.78125 
Q 16.84375 73.78125 18.984375 71.71875 
Q 21.140625 69.671875 21.140625 66.5 
Q 21.140625 63.28125 18.96875 61.234375 
Q 16.796875 59.1875 13.234375 59.1875 
Q 9.671875 59.1875 7.5 61.234375 
Q 5.328125 63.28125 5.328125 66.5 
z
" id="Roboto-Bold-105"/>
      <path d="M 52.984375 25.921875 
Q 52.984375 13.71875 47.4375 6.359375 
Q 41.890625 -0.984375 32.46875 -0.984375 
Q 24.46875 -0.984375 19.53125 4.59375 
L 19.53125 -20.3125 
L 5.421875 -20.3125 
L 5.421875 52.828125 
L 18.5 52.828125 
L 19 47.65625 
Q 24.125 53.8125 32.375 53.8125 
Q 42.140625 53.8125 47.5625 46.578125 
Q 52.984375 39.359375 52.984375 26.65625 
z
M 38.875 26.953125 
Q 38.875 34.328125 36.25 38.328125 
Q 33.640625 42.328125 28.65625 42.328125 
Q 22.015625 42.328125 19.53125 37.25 
L 19.53125 15.625 
Q 22.125 10.40625 28.765625 10.40625 
Q 38.875 10.40625 38.875 26.953125 
z
" id="Roboto-Bold-112"/>
      <path d="M 34.03125 14.59375 
Q 34.03125 17.1875 31.46875 18.671875 
Q 28.90625 20.171875 23.25 21.34375 
Q 4.390625 25.296875 4.390625 37.359375 
Q 4.390625 44.390625 10.21875 49.09375 
Q 16.0625 53.8125 25.484375 53.8125 
Q 35.546875 53.8125 41.578125 49.078125 
Q 47.609375 44.34375 47.609375 36.765625 
L 33.5 36.765625 
Q 33.5 39.796875 31.546875 41.765625 
Q 29.59375 43.75 25.4375 43.75 
Q 21.875 43.75 19.921875 42.140625 
Q 17.96875 40.53125 17.96875 38.03125 
Q 17.96875 35.6875 20.1875 34.25 
Q 22.40625 32.8125 27.671875 31.765625 
Q 32.953125 30.71875 36.578125 29.390625 
Q 47.75 25.296875 47.75 15.1875 
Q 47.75 7.953125 41.546875 3.484375 
Q 35.359375 -0.984375 25.53125 -0.984375 
Q 18.890625 -0.984375 13.734375 1.390625 
Q 8.59375 3.765625 5.65625 7.890625 
Q 2.734375 12.015625 2.734375 16.796875 
L 16.109375 16.796875 
Q 16.3125 13.03125 18.890625 11.03125 
Q 21.484375 9.03125 25.828125 9.03125 
Q 29.890625 9.03125 31.953125 10.5625 
Q 34.03125 12.109375 34.03125 14.59375 
z
" id="Roboto-Bold-115"/>
      <path id="Roboto-Bold-32"/>
      <path d="M 53.03125 25.921875 
Q 53.03125 13.234375 47.609375 6.125 
Q 42.1875 -0.984375 32.46875 -0.984375 
Q 23.875 -0.984375 18.75 5.609375 
L 18.109375 0 
L 5.421875 0 
L 5.421875 75 
L 19.53125 75 
L 19.53125 48.09375 
Q 24.421875 53.8125 32.375 53.8125 
Q 42.046875 53.8125 47.53125 46.703125 
Q 53.03125 39.59375 53.03125 26.703125 
z
M 38.921875 26.953125 
Q 38.921875 34.96875 36.375 38.640625 
Q 33.84375 42.328125 28.8125 42.328125 
Q 22.078125 42.328125 19.53125 36.8125 
L 19.53125 15.96875 
Q 22.125 10.40625 28.90625 10.40625 
Q 35.75 10.40625 37.890625 17.140625 
Q 38.921875 20.359375 38.921875 26.953125 
z
" id="Roboto-Bold-98"/>
      <path d="M 25.140625 19.96875 
L 34.90625 52.828125 
L 50.046875 52.828125 
L 28.8125 -8.203125 
L 27.640625 -10.984375 
Q 22.90625 -21.34375 12.015625 -21.34375 
Q 8.9375 -21.34375 5.765625 -20.40625 
L 5.765625 -9.71875 
L 7.90625 -9.765625 
Q 11.921875 -9.765625 13.890625 -8.546875 
Q 15.875 -7.328125 17 -4.5 
L 18.65625 -0.140625 
L 0.140625 52.828125 
L 15.328125 52.828125 
z
" id="Roboto-Bold-121"/>
      <path d="M 46.484375 14.65625 
L 20.796875 14.65625 
L 15.921875 0 
L 0.34375 0 
L 26.8125 71.09375 
L 40.375 71.09375 
L 67 0 
L 51.421875 0 
z
M 24.75 26.515625 
L 42.53125 26.515625 
L 33.59375 53.125 
z
" id="Roboto-Bold-65"/>
      <path d="M 3.375 26.8125 
Q 3.375 38.96875 9.15625 46.390625 
Q 14.9375 53.8125 24.75 53.8125 
Q 33.453125 53.8125 38.28125 47.859375 
L 38.875 52.828125 
L 51.65625 52.828125 
L 51.65625 1.765625 
Q 51.65625 -5.171875 48.5 -10.296875 
Q 45.359375 -15.4375 39.640625 -18.109375 
Q 33.9375 -20.796875 26.265625 -20.796875 
Q 20.453125 -20.796875 14.9375 -18.46875 
Q 9.421875 -16.15625 6.59375 -12.5 
L 12.84375 -3.90625 
Q 18.109375 -9.8125 25.640625 -9.8125 
Q 31.25 -9.8125 34.375 -6.8125 
Q 37.5 -3.8125 37.5 1.703125 
L 37.5 4.546875 
Q 32.625 -0.984375 24.65625 -0.984375 
Q 15.140625 -0.984375 9.25 6.46875 
Q 3.375 13.921875 3.375 26.21875 
z
M 17.484375 25.78125 
Q 17.484375 18.609375 20.359375 14.53125 
Q 23.25 10.453125 28.265625 10.453125 
Q 34.71875 10.453125 37.5 15.28125 
L 37.5 37.5 
Q 34.671875 42.328125 28.375 42.328125 
Q 23.296875 42.328125 20.390625 38.171875 
Q 17.484375 34.03125 17.484375 25.78125 
z
" id="Roboto-Bold-103"/>
      <path d="M 29.734375 -0.984375 
Q 18.109375 -0.984375 10.8125 6.140625 
Q 3.515625 13.28125 3.515625 25.140625 
L 3.515625 26.515625 
Q 3.515625 34.46875 6.59375 40.734375 
Q 9.671875 47.015625 15.3125 50.40625 
Q 20.953125 53.8125 28.171875 53.8125 
Q 39.015625 53.8125 45.234375 46.96875 
Q 51.46875 40.140625 51.46875 27.59375 
L 51.46875 21.828125 
L 17.828125 21.828125 
Q 18.5 16.65625 21.9375 13.53125 
Q 25.390625 10.40625 30.671875 10.40625 
Q 38.8125 10.40625 43.40625 16.3125 
L 50.34375 8.546875 
Q 47.171875 4.046875 41.75 1.53125 
Q 36.328125 -0.984375 29.734375 -0.984375 
z
M 28.125 42.390625 
Q 23.921875 42.390625 21.3125 39.546875 
Q 18.703125 36.71875 17.96875 31.453125 
L 37.59375 31.453125 
L 37.59375 32.5625 
Q 37.5 37.25 35.0625 39.8125 
Q 32.625 42.390625 28.125 42.390625 
z
" id="Roboto-Bold-101"/>
      <path d="M 36.03125 0 
Q 35.0625 1.90625 34.625 4.734375 
Q 29.5 -0.984375 21.296875 -0.984375 
Q 13.53125 -0.984375 8.421875 3.515625 
Q 3.328125 8.015625 3.328125 14.84375 
Q 3.328125 23.25 9.546875 27.734375 
Q 15.765625 32.234375 27.546875 32.28125 
L 34.03125 32.28125 
L 34.03125 35.296875 
Q 34.03125 38.96875 32.15625 41.15625 
Q 30.28125 43.359375 26.21875 43.359375 
Q 22.65625 43.359375 20.625 41.640625 
Q 18.609375 39.9375 18.609375 36.96875 
L 4.5 36.96875 
Q 4.5 41.546875 7.328125 45.453125 
Q 10.15625 49.359375 15.328125 51.578125 
Q 20.515625 53.8125 26.953125 53.8125 
Q 36.71875 53.8125 42.453125 48.90625 
Q 48.1875 44 48.1875 35.109375 
L 48.1875 12.203125 
Q 48.25 4.6875 50.296875 0.828125 
L 50.296875 0 
z
M 24.359375 9.8125 
Q 27.484375 9.8125 30.125 11.203125 
Q 32.765625 12.59375 34.03125 14.9375 
L 34.03125 24.03125 
L 28.765625 24.03125 
Q 18.171875 24.03125 17.484375 16.703125 
L 17.4375 15.875 
Q 17.4375 13.234375 19.28125 11.515625 
Q 21.140625 9.8125 24.359375 9.8125 
z
" id="Roboto-Bold-97"/>
      <path d="M 18.40625 52.828125 
L 18.84375 46.734375 
Q 24.515625 53.8125 34.03125 53.8125 
Q 42.4375 53.8125 46.53125 48.875 
Q 50.640625 43.953125 50.734375 34.125 
L 50.734375 0 
L 36.625 0 
L 36.625 33.796875 
Q 36.625 38.28125 34.671875 40.296875 
Q 32.71875 42.328125 28.171875 42.328125 
Q 22.21875 42.328125 19.234375 37.25 
L 19.234375 0 
L 5.125 0 
L 5.125 52.828125 
z
" id="Roboto-Bold-110"/>
      <path d="M 3.21875 26.8125 
Q 3.21875 39.15625 8.765625 46.484375 
Q 14.3125 53.8125 23.921875 53.8125 
Q 31.640625 53.8125 36.671875 48.046875 
L 36.671875 75 
L 50.828125 75 
L 50.828125 0 
L 38.09375 0 
L 37.40625 5.609375 
Q 32.125 -0.984375 23.828125 -0.984375 
Q 14.5 -0.984375 8.859375 6.359375 
Q 3.21875 13.71875 3.21875 26.8125 
z
M 17.328125 25.78125 
Q 17.328125 18.359375 19.921875 14.40625 
Q 22.515625 10.453125 27.4375 10.453125 
Q 33.984375 10.453125 36.671875 15.96875 
L 36.671875 36.8125 
Q 34.03125 42.328125 27.546875 42.328125 
Q 17.328125 42.328125 17.328125 25.78125 
z
" id="Roboto-Bold-100"/>
      <path d="M 62.59375 8.984375 
Q 58.640625 4.25 51.40625 1.625 
Q 44.1875 -0.984375 35.40625 -0.984375 
Q 26.171875 -0.984375 19.203125 3.046875 
Q 12.25 7.078125 8.46875 14.734375 
Q 4.6875 22.40625 4.59375 32.765625 
L 4.59375 37.59375 
Q 4.59375 48.25 8.171875 56.03125 
Q 11.765625 63.8125 18.53125 67.9375 
Q 25.296875 72.078125 34.375 72.078125 
Q 47.015625 72.078125 54.140625 66.046875 
Q 61.28125 60.015625 62.59375 48.484375 
L 48.34375 48.484375 
Q 47.359375 54.59375 44.015625 57.421875 
Q 40.671875 60.25 34.8125 60.25 
Q 27.34375 60.25 23.4375 54.640625 
Q 19.53125 49.03125 19.484375 37.9375 
L 19.484375 33.40625 
Q 19.484375 22.21875 23.734375 16.5 
Q 27.984375 10.796875 36.1875 10.796875 
Q 44.4375 10.796875 47.953125 14.3125 
L 47.953125 26.5625 
L 34.625 26.5625 
L 34.625 37.359375 
L 62.59375 37.359375 
z
" id="Roboto-Bold-71"/>
     </defs>
     <use xlink:href="#Roboto-Bold-84"/>
     <use x="61.865234" xlink:href="#Roboto-Bold-114"/>
     <use x="98.339844" xlink:href="#Roboto-Bold-105"/>
     <use x="124.853516" xlink:href="#Roboto-Bold-112"/>
     <use x="181.152344" xlink:href="#Roboto-Bold-115"/>
     <use x="232.568359" xlink:href="#Roboto-Bold-32"/>
     <use x="257.470703" xlink:href="#Roboto-Bold-98"/>
     <use x="313.769531" xlink:href="#Roboto-Bold-121"/>
     <use x="363.964844" xlink:href="#Roboto-Bold-32"/>
     <use x="388.867188" xlink:href="#Roboto-Bold-65"/>
     <use x="456.152344" xlink:href="#Roboto-Bold-103"/>
     <use x="513.232422" xlink:href="#Roboto-Bold-101"/>
     <use x="567.285156" xlink:href="#Roboto-Bold-32"/>
     <use x="592.1875" xlink:href="#Roboto-Bold-97"/>
     <use x="645.800781" xlink:href="#Roboto-Bold-110"/>
     <use x="701.806641" xlink:href="#Roboto-Bold-100"/>
     <use x="758.154297" xlink:href="#Roboto-Bold-32"/>
     <use x="783.056641" xlink:href="#Roboto-Bold-71"/>
     <use x="851.171875" xlink:href="#Roboto-Bold-101"/>
     <use x="905.224609" xlink:href="#Roboto-Bold-110"/>
     <use x="961.230469" xlink:href="#Roboto-Bold-100"/>
     <use x="1017.578125" xlink:href="#Roboto-Bold-101"/>
     <use x="1071.630859" xlink:href="#Roboto-Bold-114"/>
    </g>
   </g>
   <g id="text_15">
    <!-- ©CorrelAid -->
    <g style="fill:#767675;" transform="translate(0 325.5465)scale(0.11662 -0.11662)">
     <defs>
      <path d="M 54.640625 29.15625 
Q 54.640625 21.6875 50.40625 17.75 
Q 46.1875 13.8125 38.484375 13.8125 
Q 30.8125 13.8125 26.1875 18.96875 
Q 21.578125 24.125 21.578125 33.015625 
L 21.578125 38.375 
Q 21.578125 46.96875 26.234375 52.125 
Q 30.90625 57.28125 38.484375 57.28125 
Q 46.296875 57.28125 50.484375 53.265625 
Q 54.6875 49.265625 54.6875 42 
L 47.5625 42 
Q 47.5625 46.828125 45.234375 48.90625 
Q 42.921875 50.984375 38.484375 50.984375 
Q 33.890625 50.984375 31.25 47.609375 
Q 28.609375 44.234375 28.609375 38.234375 
L 28.609375 32.71875 
Q 28.609375 26.859375 31.25 23.484375 
Q 33.890625 20.125 38.484375 20.125 
Q 42.96875 20.125 45.234375 22.171875 
Q 47.515625 24.21875 47.515625 29.15625 
z
M 10.0625 35.59375 
Q 10.0625 27.203125 13.96875 20.046875 
Q 17.875 12.890625 24.578125 8.828125 
Q 31.296875 4.78125 39.109375 4.78125 
Q 46.921875 4.78125 53.609375 8.828125 
Q 60.296875 12.890625 64.203125 20.046875 
Q 68.109375 27.203125 68.109375 35.59375 
Q 68.109375 43.890625 64.25 50.96875 
Q 60.40625 58.0625 53.6875 62.140625 
Q 46.96875 66.21875 39.109375 66.21875 
Q 31.296875 66.21875 24.5625 62.1875 
Q 17.828125 58.15625 13.9375 51.015625 
Q 10.0625 43.890625 10.0625 35.59375 
z
M 4.4375 35.59375 
Q 4.4375 45.453125 9 53.90625 
Q 13.578125 62.359375 21.65625 67.21875 
Q 29.734375 72.078125 39.109375 72.078125 
Q 48.484375 72.078125 56.53125 67.21875 
Q 64.59375 62.359375 69.15625 53.90625 
Q 73.734375 45.453125 73.734375 35.59375 
Q 73.734375 25.984375 69.328125 17.578125 
Q 64.9375 9.1875 56.859375 4.078125 
Q 48.78125 -1.03125 39.109375 -1.03125 
Q 29.5 -1.03125 21.40625 4.015625 
Q 13.328125 9.078125 8.875 17.46875 
Q 4.4375 25.875 4.4375 35.59375 
z
" id="Roboto-Regular-169"/>
      <path d="M 60.546875 22.5625 
Q 59.234375 11.28125 52.21875 5.140625 
Q 45.21875 -0.984375 33.59375 -0.984375 
Q 21 -0.984375 13.40625 8.046875 
Q 5.8125 17.09375 5.8125 32.234375 
L 5.8125 39.0625 
Q 5.8125 48.96875 9.34375 56.484375 
Q 12.890625 64.015625 19.375 68.046875 
Q 25.875 72.078125 34.421875 72.078125 
Q 45.75 72.078125 52.578125 65.75 
Q 59.421875 59.421875 60.546875 48.25 
L 51.125 48.25 
Q 49.90625 56.734375 45.828125 60.546875 
Q 41.75 64.359375 34.421875 64.359375 
Q 25.4375 64.359375 20.328125 57.71875 
Q 15.234375 51.078125 15.234375 38.8125 
L 15.234375 31.9375 
Q 15.234375 20.359375 20.0625 13.515625 
Q 24.90625 6.6875 33.59375 6.6875 
Q 41.40625 6.6875 45.578125 10.21875 
Q 49.75 13.765625 51.125 22.5625 
z
" id="Roboto-Regular-67"/>
      <path d="M 47.515625 18.5625 
L 17.71875 18.5625 
L 11.03125 0 
L 1.375 0 
L 28.515625 71.09375 
L 36.71875 71.09375 
L 63.921875 0 
L 54.296875 0 
z
M 20.5625 26.265625 
L 44.734375 26.265625 
L 32.625 59.515625 
z
" id="Roboto-Regular-65"/>
     </defs>
     <use xlink:href="#Roboto-Regular-169"/>
     <use x="78.564453" xlink:href="#Roboto-Regular-67"/>
     <use x="143.652344" xlink:href="#Roboto-Regular-111"/>
     <use x="200.683594" xlink:href="#Roboto-Regular-114"/>
     <use x="234.521484" xlink:href="#Roboto-Regular-114"/>
     <use x="268.359375" xlink:href="#Roboto-Regular-101"/>
     <use x="321.337891" xlink:href="#Roboto-Regular-108"/>
     <use x="345.605469" xlink:href="#Roboto-Regular-65"/>
     <use x="410.839844" xlink:href="#Roboto-Regular-105"/>
     <use x="435.107422" xlink:href="#Roboto-Regular-100"/>
    </g>
   </g>
   <g id="text_16">
    <!-- Source: CRTM 2018 -->
    <g style="fill:#767675;" transform="translate(298.824628 325.5465)scale(0.11662 -0.11662)">
     <defs>
      <path d="M 29.203125 31.6875 
Q 17.140625 35.15625 11.640625 40.203125 
Q 6.15625 45.265625 6.15625 52.6875 
Q 6.15625 61.078125 12.859375 66.578125 
Q 19.578125 72.078125 30.328125 72.078125 
Q 37.640625 72.078125 43.375 69.234375 
Q 49.125 66.40625 52.265625 61.421875 
Q 55.421875 56.453125 55.421875 50.53125 
L 46 50.53125 
Q 46 56.984375 41.890625 60.671875 
Q 37.796875 64.359375 30.328125 64.359375 
Q 23.390625 64.359375 19.5 61.296875 
Q 15.625 58.25 15.625 52.828125 
Q 15.625 48.484375 19.3125 45.484375 
Q 23 42.484375 31.859375 39.984375 
Q 40.71875 37.5 45.71875 34.5 
Q 50.734375 31.5 53.140625 27.484375 
Q 55.5625 23.484375 55.5625 18.0625 
Q 55.5625 9.421875 48.828125 4.21875 
Q 42.09375 -0.984375 30.8125 -0.984375 
Q 23.484375 -0.984375 17.140625 1.828125 
Q 10.796875 4.640625 7.34375 9.515625 
Q 3.90625 14.40625 3.90625 20.609375 
L 13.328125 20.609375 
Q 13.328125 14.15625 18.09375 10.421875 
Q 22.859375 6.6875 30.8125 6.6875 
Q 38.234375 6.6875 42.1875 9.71875 
Q 46.140625 12.75 46.140625 17.96875 
Q 46.140625 23.1875 42.46875 26.046875 
Q 38.8125 28.90625 29.203125 31.6875 
z
" id="Roboto-Regular-83"/>
      <path d="M 6.546875 4.734375 
Q 6.546875 7.078125 7.9375 8.640625 
Q 9.328125 10.203125 12.109375 10.203125 
Q 14.890625 10.203125 16.328125 8.640625 
Q 17.78125 7.078125 17.78125 4.734375 
Q 17.78125 2.484375 16.328125 0.96875 
Q 14.890625 -0.53125 12.109375 -0.53125 
Q 9.328125 -0.53125 7.9375 0.96875 
Q 6.546875 2.484375 6.546875 4.734375 
z
M 6.59375 47.84375 
Q 6.59375 50.1875 7.984375 51.75 
Q 9.375 53.3125 12.15625 53.3125 
Q 14.9375 53.3125 16.375 51.75 
Q 17.828125 50.1875 17.828125 47.84375 
Q 17.828125 45.59375 16.375 44.078125 
Q 14.9375 42.578125 12.15625 42.578125 
Q 9.375 42.578125 7.984375 44.078125 
Q 6.59375 45.59375 6.59375 47.84375 
z
" id="Roboto-Regular-58"/>
      <path d="M 34.328125 28.765625 
L 17.625 28.765625 
L 17.625 0 
L 8.203125 0 
L 8.203125 71.09375 
L 31.734375 71.09375 
Q 43.75 71.09375 50.21875 65.625 
Q 56.6875 60.15625 56.6875 49.703125 
Q 56.6875 43.0625 53.09375 38.125 
Q 49.515625 33.203125 43.109375 30.765625 
L 59.8125 0.59375 
L 59.8125 0 
L 49.75 0 
z
M 17.625 36.421875 
L 32.03125 36.421875 
Q 39.015625 36.421875 43.140625 40.03125 
Q 47.265625 43.65625 47.265625 49.703125 
Q 47.265625 56.296875 43.328125 59.8125 
Q 39.40625 63.328125 31.984375 63.375 
L 17.625 63.375 
z
" id="Roboto-Regular-82"/>
      <path d="M 57.375 63.375 
L 34.515625 63.375 
L 34.515625 0 
L 25.203125 0 
L 25.203125 63.375 
L 2.390625 63.375 
L 2.390625 71.09375 
L 57.375 71.09375 
z
" id="Roboto-Regular-84"/>
      <path d="M 20.359375 71.09375 
L 43.609375 13.09375 
L 66.84375 71.09375 
L 79 71.09375 
L 79 0 
L 69.625 0 
L 69.625 27.6875 
L 70.515625 57.5625 
L 47.171875 0 
L 39.984375 0 
L 16.703125 57.421875 
L 17.625 27.6875 
L 17.625 0 
L 8.25 0 
L 8.25 71.09375 
z
" id="Roboto-Regular-77"/>
      <path d="M 35.59375 0 
L 26.515625 0 
L 26.515625 60.203125 
L 8.296875 53.515625 
L 8.296875 61.71875 
L 34.1875 71.4375 
L 35.59375 71.4375 
z
" id="Roboto-Regular-49"/>
     </defs>
     <use xlink:href="#Roboto-Regular-83"/>
     <use x="59.326172" xlink:href="#Roboto-Regular-111"/>
     <use x="116.357422" xlink:href="#Roboto-Regular-117"/>
     <use x="171.484375" xlink:href="#Roboto-Regular-114"/>
     <use x="205.322266" xlink:href="#Roboto-Regular-99"/>
     <use x="257.666016" xlink:href="#Roboto-Regular-101"/>
     <use x="310.644531" xlink:href="#Roboto-Regular-58"/>
     <use x="334.863281" xlink:href="#Roboto-Regular-32"/>
     <use x="359.619141" xlink:href="#Roboto-Regular-67"/>
     <use x="424.707031" xlink:href="#Roboto-Regular-82"/>
     <use x="486.279297" xlink:href="#Roboto-Regular-84"/>
     <use x="545.947266" xlink:href="#Roboto-Regular-77"/>
     <use x="633.251953" xlink:href="#Roboto-Regular-32"/>
     <use x="658.007812" xlink:href="#Roboto-Regular-50"/>
     <use x="714.160156" xlink:href="#Roboto-Regular-48"/>
     <use x="770.3125" xlink:href="#Roboto-Regular-49"/>
     <use x="826.464844" xlink:href="#Roboto-Regular-56"/>
    </g>
   </g>
   <g id="legend_1">
    <g id="line2d_19">
     <path d="M 414.36 75.8 
L 442.36 75.8 
" style="fill:none;stroke:#3863a2;stroke-width:2;"/>
    </g>
    <g id="line2d_20"/>
    <g id="text_17">
     <!-- Men -->
     <g style="fill:#767675;" transform="translate(453.56 80.7)scale(0.14 -0.14)">
      <use xlink:href="#Roboto-Regular-77"/>
      <use x="87.304688" xlink:href="#Roboto-Regular-101"/>
      <use x="140.283203" xlink:href="#Roboto-Regular-110"/>
     </g>
    </g>
    <g id="line2d_21">
     <path d="M 414.36 96.14375 
L 442.36 96.14375 
" style="fill:none;stroke:#f04451;stroke-width:2;"/>
    </g>
    <g id="line2d_22"/>
    <g id="text_18">
     <!-- Women -->
     <g style="fill:#767675;" transform="translate(453.56 101.04375)scale(0.14 -0.14)">
      <use xlink:href="#Roboto-Regular-87"/>
      <use x="88.720703" xlink:href="#Roboto-Regular-111"/>
      <use x="145.751953" xlink:href="#Roboto-Regular-109"/>
      <use x="233.398438" xlink:href="#Roboto-Regular-101"/>
      <use x="286.376953" xlink:href="#Roboto-Regular-110"/>
     </g>
    </g>
   </g>
  </g>
 </g>
 <defs>
  <clipPath id="pbb09fa5f08">
   <rect height="233.28" width="375.84" x="25.92" y="57.6"/>
  </clipPath>
 </defs>
</svg>
