<?xml version="1.0" encoding="UTF-8" standalone="no"?>
<!DOCTYPE svg PUBLIC "-//W3C//DTD SVG 1.1//EN" "http://www.w3.org/Graphics/SVG/1.1/DTD/svg11.dtd">
<svg width="100%" height="100%" viewBox="0 0 3508 2481" version="1.1" xmlns="http://www.w3.org/2000/svg" xmlns:xlink="http://www.w3.org/1999/xlink" xml:space="preserve" xmlns:serif="http://www.serif.com/" style="fill-rule:evenodd;clip-rule:evenodd;stroke-linejoin:round;stroke-miterlimit:10;">
    <g transform="matrix(1.12903,0,0,1,-33.3775,344.487)">
        <rect x="236.22" y="472.441" width="1464.57" height="1062.99" style="fill:none;"/>
    </g>
    <g transform="matrix(4.16667,0,0,4.16667,242.06,810.891)">
        <rect x="0" y="0" width="1" height="1" style="fill:none;"/>
    </g>
    <g transform="matrix(4.16667,0,0,4.16667,242.06,810.891)">
        <path d="M137.78,216.53L137.78,5.48" style="fill:none;fill-rule:nonzero;stroke:rgb(235,235,235);stroke-width:1px;"/>
    </g>
    <g transform="matrix(4.16667,0,0,4.16667,242.06,810.891)">
        <path d="M184.08,216.53L184.08,5.48" style="fill:none;fill-rule:nonzero;stroke:rgb(235,235,235);stroke-width:1px;"/>
    </g>
    <g transform="matrix(4.16667,0,0,4.16667,242.06,810.891)">
        <path d="M230.37,216.53L230.37,5.48" style="fill:none;fill-rule:nonzero;stroke:rgb(235,235,235);stroke-width:1px;"/>
    </g>
    <g transform="matrix(4.16667,0,0,4.16667,242.06,810.891)">
        <path d="M276.67,216.53L276.67,5.48" style="fill:none;fill-rule:nonzero;stroke:rgb(235,235,235);stroke-width:1px;"/>
    </g>
    <g transform="matrix(4.16667,0,0,4.16667,242.06,810.891)">
        <path d="M322.97,216.53L322.97,5.48" style="fill:none;fill-rule:nonzero;stroke:rgb(235,235,235);stroke-width:1px;"/>
    </g>
    <g transform="matrix(4.16667,0,0,4.16667,242.06,810.891)">
        <path d="M369.26,216.53L369.26,5.48" style="fill:none;fill-rule:nonzero;stroke:rgb(235,235,235);stroke-width:1px;"/>
    </g>
    <g transform="matrix(4.16667,0,0,4.16667,242.06,810.891)">
        <rect x="137.78" y="20.46" width="163.81" height="11.72" style="fill:rgb(0,142,143);"/>
    </g>
    <g transform="matrix(4.16667,0,0,4.16667,242.06,810.891)">
        <rect x="137.78" y="33.49" width="148.53" height="11.72" style="fill:rgb(0,142,143);"/>
    </g>
    <g transform="matrix(4.16667,0,0,4.16667,242.06,810.891)">
        <rect x="137.78" y="72.57" width="50.88" height="11.72" style="fill:rgb(0,142,143);"/>
    </g>
    <g transform="matrix(4.16667,0,0,4.16667,242.06,810.891)">
        <rect x="137.78" y="163.77" width="8.82" height="11.72" style="fill:rgb(199,198,196);"/>
    </g>
    <g transform="matrix(4.16667,0,0,4.16667,242.06,810.891)">
        <rect x="137.78" y="137.71" width="10.56" height="11.72" style="fill:rgb(199,198,196);"/>
    </g>
    <g transform="matrix(4.16667,0,0,4.16667,242.06,810.891)">
        <rect x="137.78" y="98.63" width="26.95" height="11.72" style="fill:rgb(199,198,196);"/>
    </g>
    <g transform="matrix(4.16667,0,0,4.16667,242.06,810.891)">
        <rect x="137.78" y="46.52" width="93.06" height="11.72" style="fill:rgb(0,142,143);"/>
    </g>
    <g transform="matrix(4.16667,0,0,4.16667,242.06,810.891)">
        <rect x="137.78" y="202.85" width="5.38" height="11.72" style="fill:rgb(199,198,196);"/>
    </g>
    <g transform="matrix(4.16667,0,0,4.16667,242.06,810.891)">
        <rect x="137.78" y="59.54" width="77.34" height="11.72" style="fill:rgb(0,142,143);"/>
    </g>
    <g transform="matrix(4.16667,0,0,4.16667,242.06,810.891)">
        <rect x="137.78" y="7.43" width="241.51" height="11.72" style="fill:rgb(0,142,143);"/>
    </g>
    <g transform="matrix(4.16667,0,0,4.16667,242.06,810.891)">
        <rect x="137.78" y="85.6" width="46.18" height="11.72" style="fill:rgb(199,198,196);"/>
    </g>
    <g transform="matrix(4.16667,0,0,4.16667,242.06,810.891)">
        <rect x="137.78" y="150.74" width="9.84" height="11.72" style="fill:rgb(199,198,196);"/>
    </g>
    <g transform="matrix(4.16667,0,0,4.16667,242.06,810.891)">
        <rect x="137.78" y="124.68" width="14.35" height="11.72" style="fill:rgb(199,198,196);"/>
    </g>
    <g transform="matrix(4.16667,0,0,4.16667,242.06,810.891)">
        <rect x="137.78" y="176.79" width="7.24" height="11.72" style="fill:rgb(199,198,196);"/>
    </g>
    <g transform="matrix(4.16667,0,0,4.16667,242.06,810.891)">
        <rect x="137.78" y="111.66" width="21.67" height="11.72" style="fill:rgb(199,198,196);"/>
    </g>
    <g transform="matrix(4.16667,0,0,4.16667,242.06,810.891)">
        <rect x="137.78" y="189.82" width="6.72" height="11.72" style="fill:rgb(199,198,196);"/>
    </g>
    <g transform="matrix(4.16667,0,0,4.16667,745.268,1694.85)">
        <text x="-114.288px" y="0px" style="font-family:'Lato-Regular', 'Lato', sans-serif;font-size:9.6px;fill:rgb(111,110,106);">Mecklenburg-<tspan x="-55.814px -49.843px " y="0px 0px ">Vo</tspan>rpommern</text>
    </g>
    <g transform="matrix(4.16667,0,0,4.16667,745.268,1640.56)">
        <text x="-43.277px" y="0px" style="font-family:'Lato-Regular', 'Lato', sans-serif;font-size:9.6px;fill:rgb(111,110,106);">Thüringen</text>
    </g>
    <g transform="matrix(4.16667,0,0,4.16667,745.268,1586.27)">
        <text x="-65.501px" y="0px" style="font-family:'Lato-Regular', 'Lato', sans-serif;font-size:9.6px;fill:rgb(111,110,106);">Sachsen-<tspan x="-28.109px " y="0px ">A</tspan>nhalt</text>
    </g>
    <g transform="matrix(4.16667,0,0,4.16667,745.268,1531.97)">
        <text x="-55.315px" y="0px" style="font-family:'Lato-Regular', 'Lato', sans-serif;font-size:9.6px;fill:rgb(111,110,106);">Br<tspan x="-45.418px " y="0px ">a</tspan>ndenburg</text>
    </g>
    <g transform="matrix(4.16667,0,0,4.16667,745.268,1477.72)">
        <text x="-36.72px" y="0px" style="font-family:'Lato-Regular', 'Lato', sans-serif;font-size:9.6px;fill:rgb(111,110,106);">Saarland</text>
    </g>
    <g transform="matrix(4.16667,0,0,4.16667,745.268,1423.43)">
        <text x="-33.36px" y="0px" style="font-family:'Lato-Regular', 'Lato', sans-serif;font-size:9.6px;fill:rgb(111,110,106);">Bremen</text>
    </g>
    <g transform="matrix(4.16667,0,0,4.16667,745.268,1369.14)">
        <text x="-34.31px" y="0px" style="font-family:'Lato-Regular', 'Lato', sans-serif;font-size:9.6px;fill:rgb(111,110,106);">Sachsen</text>
    </g>
    <g transform="matrix(4.16667,0,0,4.16667,745.268,1314.85)">
        <text x="-80.237px" y="0px" style="font-family:'Lato-Regular', 'Lato', sans-serif;font-size:9.6px;fill:rgb(111,110,106);">Schleswig-Holstein</text>
    </g>
    <g transform="matrix(4.16667,0,0,4.16667,745.268,1260.56)">
        <text x="-39.485px" y="0px" style="font-family:'Lato-Regular', 'Lato', sans-serif;font-size:9.6px;fill:rgb(111,110,106);">Hamburg</text>
    </g>
    <g transform="matrix(4.16667,0,0,4.16667,745.268,1206.31)">
        <text x="-66.566px" y="0px" style="font-family:'Lato-Regular', 'Lato', sans-serif;font-size:9.6px;fill:rgb(111,110,106);">Rheinland-Pfalz</text>
    </g>
    <g transform="matrix(4.16667,0,0,4.16667,745.268,1152.02)">
        <text x="-25.968px" y="0px" style="font-family:'Lato-Bold', 'Lato', sans-serif;font-weight:700;font-size:9.6px;fill:rgb(0,142,143);">Berlin</text>
    </g>
    <g transform="matrix(4.16667,0,0,4.16667,745.268,1097.72)">
        <text x="-63.557px" y="0px" style="font-family:'Lato-Bold', 'Lato', sans-serif;font-weight:700;font-size:9.6px;fill:rgb(0,142,143);">Niedersachsen</text>
    </g>
    <g transform="matrix(4.16667,0,0,4.16667,745.268,1043.43)">
        <text x="-31.368px" y="0px" style="font-family:'Lato-Bold', 'Lato', sans-serif;font-weight:700;font-size:9.6px;fill:rgb(0,142,143);">Hessen</text>
    </g>
    <g transform="matrix(4.16667,0,0,4.16667,745.268,989.183)">
        <text x="-30.581px" y="0px" style="font-family:'Lato-Bold', 'Lato', sans-serif;font-weight:700;font-size:9.6px;fill:rgb(0,142,143);">Ba<tspan x="-19.474px -14.51px " y="0px 0px ">ye</tspan>rn</text>
    </g>
    <g transform="matrix(4.16667,0,0,4.16667,745.268,934.891)">
        <text x="-90.178px" y="0px" style="font-family:'Lato-Bold', 'Lato', sans-serif;font-weight:700;font-size:9.6px;fill:rgb(0,142,143);">Baden-<tspan x="-59.563px " y="0px ">W</tspan>ürttemberg</text>
    </g>
    <g transform="matrix(4.16667,0,0,4.16667,745.268,880.599)">
        <text x="-92.424px" y="0px" style="font-family:'Lato-Bold', 'Lato', sans-serif;font-weight:700;font-size:9.6px;fill:rgb(0,142,143);">Nordrhein-<tspan x="-44.472px -34.622px " y="0px 0px ">We</tspan>stfalen</text>
    </g>
    <g transform="matrix(4.16667,0,0,4.16667,816.143,1760.93)">
        <text x="-2.784px" y="0px" style="font-family:'Lato-Regular', 'Lato', sans-serif;font-size:9.6px;fill:rgb(77,77,77);">0</text>
    </g>
    <g transform="matrix(4.16667,0,0,4.16667,1009.06,1760.93)">
        <text x="-2.784px" y="0px" style="font-family:'Lato-Regular', 'Lato', sans-serif;font-size:9.6px;fill:rgb(77,77,77);">1</text>
    </g>
    <g transform="matrix(4.16667,0,0,4.16667,1201.93,1760.93)">
        <text x="-2.784px" y="0px" style="font-family:'Lato-Regular', 'Lato', sans-serif;font-size:9.6px;fill:rgb(77,77,77);">2</text>
    </g>
    <g transform="matrix(4.16667,0,0,4.16667,1394.85,1760.93)">
        <text x="-2.784px" y="0px" style="font-family:'Lato-Regular', 'Lato', sans-serif;font-size:9.6px;fill:rgb(77,77,77);">3</text>
    </g>
    <g transform="matrix(4.16667,0,0,4.16667,1587.77,1760.93)">
        <text x="-2.784px" y="0px" style="font-family:'Lato-Regular', 'Lato', sans-serif;font-size:9.6px;fill:rgb(77,77,77);">4</text>
    </g>
    <g transform="matrix(4.16667,0,0,4.16667,1780.64,1760.93)">
        <text x="-2.784px" y="0px" style="font-family:'Lato-Regular', 'Lato', sans-serif;font-size:9.6px;fill:rgb(77,77,77);">5</text>
    </g>
    <g transform="matrix(4.16667,0,0,4.16667,1319.31,1846.47)">
        <text x="-101.323px" y="0px" style="font-family:'Lato-Regular', 'Lato', sans-serif;font-size:9.6px;fill:rgb(77,77,77);">Millions of people with a “migr<tspan x="24.494px " y="0px ">a</tspan>tion background”</text>
    </g>
    <g transform="matrix(0.780108,0,0,1,1938.81,344.487)">
        <rect x="236.22" y="472.441" width="1464.57" height="1062.99" style="fill:none;"/>
    </g>
    <g transform="matrix(4.16667,0,0,4.16667,2125.77,816.928)">
        <rect x="0" y="0" width="1" height="1" style="fill:none;"/>
    </g>
    <g transform="matrix(4.16667,0,0,4.16667,2125.77,816.928)">
        <path d="M132.2,216.53L132.2,5.48" style="fill:none;fill-rule:nonzero;stroke:rgb(235,235,235);stroke-width:1px;"/>
    </g>
    <g transform="matrix(4.16667,0,0,4.16667,2125.77,816.928)">
        <path d="M163.06,216.53L163.06,5.48" style="fill:none;fill-rule:nonzero;stroke:rgb(235,235,235);stroke-width:1px;"/>
    </g>
    <g transform="matrix(4.16667,0,0,4.16667,2125.77,816.928)">
        <path d="M193.91,216.53L193.91,5.48" style="fill:none;fill-rule:nonzero;stroke:rgb(235,235,235);stroke-width:1px;"/>
    </g>
    <g transform="matrix(4.16667,0,0,4.16667,2125.77,816.928)">
        <path d="M224.77,216.53L224.77,5.48" style="fill:none;fill-rule:nonzero;stroke:rgb(235,235,235);stroke-width:1px;"/>
    </g>
    <g transform="matrix(4.16667,0,0,4.16667,2125.77,816.928)">
        <path d="M255.62,216.53L255.62,5.48" style="fill:none;fill-rule:nonzero;stroke:rgb(235,235,235);stroke-width:1px;"/>
    </g>
    <g transform="matrix(4.16667,0,0,4.16667,2125.77,816.928)">
        <rect x="132.2" y="20.46" width="116.73" height="11.72" style="fill:rgb(199,198,196);"/>
    </g>
    <g transform="matrix(4.16667,0,0,4.16667,2125.77,816.928)">
        <rect x="132.2" y="33.49" width="107" height="11.72" style="fill:rgb(199,198,196);"/>
    </g>
    <g transform="matrix(4.16667,0,0,4.16667,2125.77,816.928)">
        <rect x="132.2" y="72.57" width="87.16" height="11.72" style="fill:rgb(199,198,196);"/>
    </g>
    <g transform="matrix(4.16667,0,0,4.16667,2125.77,816.928)">
        <rect x="132.2" y="163.77" width="95" height="11.72" style="fill:rgb(199,198,196);"/>
    </g>
    <g transform="matrix(4.16667,0,0,4.16667,2125.77,816.928)">
        <rect x="132.2" y="137.71" width="106.6" height="11.72" style="fill:rgb(199,198,196);"/>
    </g>
    <g transform="matrix(4.16667,0,0,4.16667,2125.77,816.928)">
        <rect x="132.2" y="98.63" width="109.53" height="11.72" style="fill:rgb(199,198,196);"/>
    </g>
    <g transform="matrix(4.16667,0,0,4.16667,2125.77,816.928)">
        <rect x="132.2" y="46.52" width="114.64" height="11.72" style="fill:rgb(199,198,196);"/>
    </g>
    <g transform="matrix(4.16667,0,0,4.16667,2125.77,816.928)">
        <rect x="132.2" y="202.85" width="97.48" height="11.72" style="fill:rgb(199,198,196);"/>
    </g>
    <g transform="matrix(4.16667,0,0,4.16667,2125.77,816.928)">
        <rect x="132.2" y="59.54" width="129.93" height="11.72" style="fill:rgb(0,142,143);"/>
    </g>
    <g transform="matrix(4.16667,0,0,4.16667,2125.77,816.928)">
        <rect x="132.2" y="7.43" width="125.27" height="11.72" style="fill:rgb(0,142,143);"/>
    </g>
    <g transform="matrix(4.16667,0,0,4.16667,2125.77,816.928)">
        <rect x="132.2" y="85.6" width="128.99" height="11.72" style="fill:rgb(0,142,143);"/>
    </g>
    <g transform="matrix(4.16667,0,0,4.16667,2125.77,816.928)">
        <rect x="132.2" y="150.74" width="113.73" height="11.72" style="fill:rgb(199,198,196);"/>
    </g>
    <g transform="matrix(4.16667,0,0,4.16667,2125.77,816.928)">
        <rect x="132.2" y="124.68" width="86.53" height="11.72" style="fill:rgb(199,198,196);"/>
    </g>
    <g transform="matrix(4.16667,0,0,4.16667,2125.77,816.928)">
        <rect x="132.2" y="176.79" width="81.19" height="11.72" style="fill:rgb(199,198,196);"/>
    </g>
    <g transform="matrix(4.16667,0,0,4.16667,2125.77,816.928)">
        <rect x="132.2" y="111.66" width="121.75" height="11.72" style="fill:rgb(199,198,196);"/>
    </g>
    <g transform="matrix(4.16667,0,0,4.16667,2125.77,816.928)">
        <rect x="132.2" y="189.82" width="77.52" height="11.72" style="fill:rgb(199,198,196);"/>
    </g>
    <g transform="matrix(4.16667,0,0,4.16667,2628.98,1700.89)">
        <text x="-114.288px" y="0px" style="font-family:'Lato-Regular', 'Lato', sans-serif;font-size:9.6px;fill:rgb(111,110,106);">Mecklenburg-<tspan x="-55.814px -49.843px " y="0px 0px ">Vo</tspan>rpommern</text>
    </g>
    <g transform="matrix(4.16667,0,0,4.16667,2628.98,1646.59)">
        <text x="-43.277px" y="0px" style="font-family:'Lato-Regular', 'Lato', sans-serif;font-size:9.6px;fill:rgb(111,110,106);">Thüringen</text>
    </g>
    <g transform="matrix(4.16667,0,0,4.16667,2628.98,1592.3)">
        <text x="-65.501px" y="0px" style="font-family:'Lato-Regular', 'Lato', sans-serif;font-size:9.6px;fill:rgb(111,110,106);">Sachsen-<tspan x="-28.109px " y="0px ">A</tspan>nhalt</text>
    </g>
    <g transform="matrix(4.16667,0,0,4.16667,2628.98,1538.01)">
        <text x="-55.315px" y="0px" style="font-family:'Lato-Regular', 'Lato', sans-serif;font-size:9.6px;fill:rgb(111,110,106);">Br<tspan x="-45.418px " y="0px ">a</tspan>ndenburg</text>
    </g>
    <g transform="matrix(4.16667,0,0,4.16667,2628.98,1483.76)">
        <text x="-36.72px" y="0px" style="font-family:'Lato-Regular', 'Lato', sans-serif;font-size:9.6px;fill:rgb(111,110,106);">Saarland</text>
    </g>
    <g transform="matrix(4.16667,0,0,4.16667,2628.98,1429.47)">
        <text x="-33.36px" y="0px" style="font-family:'Lato-Regular', 'Lato', sans-serif;font-size:9.6px;fill:rgb(111,110,106);">Bremen</text>
    </g>
    <g transform="matrix(4.16667,0,0,4.16667,2628.98,1375.18)">
        <text x="-34.31px" y="0px" style="font-family:'Lato-Regular', 'Lato', sans-serif;font-size:9.6px;fill:rgb(111,110,106);">Sachsen</text>
    </g>
    <g transform="matrix(4.16667,0,0,4.16667,2628.98,1320.89)">
        <text x="-80.237px" y="0px" style="font-family:'Lato-Regular', 'Lato', sans-serif;font-size:9.6px;fill:rgb(111,110,106);">Schleswig-Holstein</text>
    </g>
    <g transform="matrix(4.16667,0,0,4.16667,2628.98,1266.59)">
        <text x="-39.485px" y="0px" style="font-family:'Lato-Regular', 'Lato', sans-serif;font-size:9.6px;fill:rgb(111,110,106);">Hamburg</text>
    </g>
    <g transform="matrix(4.16667,0,0,4.16667,2628.98,1212.34)">
        <text x="-68.438px" y="0px" style="font-family:'Lato-Bold', 'Lato', sans-serif;font-weight:700;font-size:9.6px;fill:rgb(0,142,143);">Rheinland-Pfalz</text>
    </g>
    <g transform="matrix(4.16667,0,0,4.16667,2628.98,1158.05)">
        <text x="-25.363px" y="0px" style="font-family:'Lato-Regular', 'Lato', sans-serif;font-size:9.6px;fill:rgb(111,110,106);">Berlin</text>
    </g>
    <g transform="matrix(4.16667,0,0,4.16667,2628.98,1103.76)">
        <text x="-63.557px" y="0px" style="font-family:'Lato-Bold', 'Lato', sans-serif;font-weight:700;font-size:9.6px;fill:rgb(0,142,143);">Niedersachsen</text>
    </g>
    <g transform="matrix(4.16667,0,0,4.16667,2628.98,1049.47)">
        <text x="-30.989px" y="0px" style="font-family:'Lato-Regular', 'Lato', sans-serif;font-size:9.6px;fill:rgb(111,110,106);">Hessen</text>
    </g>
    <g transform="matrix(4.16667,0,0,4.16667,2628.98,995.219)">
        <text x="-29.952px" y="0px" style="font-family:'Lato-Regular', 'Lato', sans-serif;font-size:9.6px;fill:rgb(111,110,106);">Ba<tspan x="-19.027px -14.237px " y="0px 0px ">ye</tspan>rn</text>
    </g>
    <g transform="matrix(4.16667,0,0,4.16667,2628.98,940.928)">
        <text x="-88.224px" y="0px" style="font-family:'Lato-Regular', 'Lato', sans-serif;font-size:9.6px;fill:rgb(111,110,106);">Baden-<tspan x="-58.234px " y="0px ">W</tspan>ürttemberg</text>
    </g>
    <g transform="matrix(4.16667,0,0,4.16667,2628.98,886.636)">
        <text x="-92.424px" y="0px" style="font-family:'Lato-Bold', 'Lato', sans-serif;font-weight:700;font-size:9.6px;fill:rgb(0,142,143);">Nordrhein-<tspan x="-44.472px -34.622px " y="0px 0px ">We</tspan>stfalen</text>
    </g>
    <g transform="matrix(4.16667,0,0,4.16667,2676.6,1766.97)">
        <text x="-6.557px" y="0px" style="font-family:'Lato-Regular', 'Lato', sans-serif;font-size:9.6px;fill:rgb(77,77,77);">0%</text>
    </g>
    <g transform="matrix(4.16667,0,0,4.16667,2805.19,1766.97)">
        <text x="-9.341px" y="0px" style="font-family:'Lato-Regular', 'Lato', sans-serif;font-size:9.6px;fill:rgb(77,77,77);">10%</text>
    </g>
    <g transform="matrix(4.16667,0,0,4.16667,2933.73,1766.97)">
        <text x="-9.341px" y="0px" style="font-family:'Lato-Regular', 'Lato', sans-serif;font-size:9.6px;fill:rgb(77,77,77);">20%</text>
    </g>
    <g transform="matrix(4.16667,0,0,4.16667,3062.31,1766.97)">
        <text x="-9.341px" y="0px" style="font-family:'Lato-Regular', 'Lato', sans-serif;font-size:9.6px;fill:rgb(77,77,77);">30%</text>
    </g>
    <g transform="matrix(4.16667,0,0,4.16667,3190.85,1766.97)">
        <text x="-9.341px" y="0px" style="font-family:'Lato-Regular', 'Lato', sans-serif;font-size:9.6px;fill:rgb(77,77,77);">40%</text>
    </g>
    <g transform="matrix(4.16667,0,0,4.16667,2947.31,1852.51)">
        <text x="-80.875px" y="0px" style="font-family:'Lato-Regular', 'Lato', sans-serif;font-size:9.6px;fill:rgb(77,77,77);">P<tspan x="-75.154px " y="0px ">e</tspan>rcentage of people with a “migr<tspan x="59.294px " y="0px ">a</tspan>tion</text>
        <text x="-75.634px" y="11px" style="font-family:'Lato-Regular', 'Lato', sans-serif;font-size:9.6px;fill:rgb(77,77,77);">Background” who are eligible to v<tspan x="63.538px " y="11px ">o</tspan>te</text>
    </g>
    <g transform="matrix(1,0,0,1,-2.89746,338.45)">
        <text x="236.22px" y="279.562px" style="font-family:'Lato-Bold', 'Lato', sans-serif;font-weight:700;font-size:58.333px;">Appro<tspan x="398.854px " y="279.562px ">x</tspan>imately 20.1 million people with a “migr<tspan x="1453.78px " y="279.562px ">a</tspan>tion background”</text>
        <text x="236.22px" y="346.229px" style="font-family:'Lato-Bold', 'Lato', sans-serif;font-weight:700;font-size:58.333px;">liv<tspan x="297.995px " y="346.229px ">e</tspan> in German<tspan x="609.612px 636.766px " y="346.229px 346.229px ">y.</tspan></text>
        <text x="236.22px" y="421.229px" style="font-family:'Lato-Bold', 'Lato', sans-serif;font-weight:700;font-size:50px;fill:rgb(0,142,143);">83% of people with a “migr<tspan x="828.37px " y="421.229px ">a</tspan>tion background” liv<tspan x="1302.27px " y="421.229px ">e</tspan> in just six states.</text>
    </g>
    <g transform="matrix(1,0,0,1,1886.87,342.352)">
        <text x="236.22px" y="279.562px" style="font-family:'Lato-Bold', 'Lato', sans-serif;font-weight:700;font-size:58.333px;">But the majority are not eligible to v<tspan x="1166.9px " y="279.562px ">o</tspan>te.</text>
        <text x="236.22px" y="346.229px" style="font-family:'Lato-Bold', 'Lato', sans-serif;font-weight:700;font-size:50px;fill:rgb(0,142,143);">There are  just three states where 40% or more</text>
        <text x="236.22px" y="404.562px" style="font-family:'Lato-Bold', 'Lato', sans-serif;font-weight:700;font-size:50px;fill:rgb(0,142,143);">of people with a migr<tspan x="701.02px " y="404.562px ">a</tspan>tion background are eligible.</text>
    </g>
    <g transform="matrix(1,0,0,1,989.229,1047.11)">
        <text x="236.22px" y="266.908px" style="font-family:'Lato-Regular', 'Lato', sans-serif;font-size:41.667px;fill:rgb(111,110,106);">A person is considered</text>
        <text x="236.22px" y="316.908px" style="font-family:'Lato-Regular', 'Lato', sans-serif;font-size:41.667px;fill:rgb(111,110,106);">to ha<tspan x="326.595px 347.387px " y="316.908px 316.908px ">ve</tspan> a “migr<tspan x="503.762px " y="316.908px ">a</tspan>tion</text>
        <text x="236.22px" y="366.908px" style="font-family:'Lato-Regular', 'Lato', sans-serif;font-size:41.667px;fill:rgb(111,110,106);">background” if the<tspan x="568.762px 587.345px " y="366.908px 366.908px ">y,</tspan></text>
        <text x="236.22px" y="416.908px" style="font-family:'Lato-Regular', 'Lato', sans-serif;font-size:41.667px;fill:rgb(111,110,106);">or their parents, were</text>
        <text x="236.22px" y="466.908px" style="font-family:'Lato-Regular', 'Lato', sans-serif;font-size:41.667px;fill:rgb(111,110,106);">born outside German<tspan x="621.512px 640.095px " y="466.908px 466.908px ">y.</tspan></text>
    </g>
</svg>
