<?xml version="1.0" standalone="no"?>
<!DOCTYPE svg PUBLIC "-//W3C//DTD SVG 20010904//EN"
 "http://www.w3.org/TR/2001/REC-SVG-20010904/DTD/svg10.dtd">
<svg version="1.0" xmlns="http://www.w3.org/2000/svg"
 width="2692.000000pt" height="2692.000000pt" viewBox="0 0 2692.000000 2692.000000"
 preserveAspectRatio="xMidYMid meet">
<metadata>
Created by potrace 1.11, written by Peter Selinger 2001-2013
</metadata>
<g transform="translate(0.000000,2692.000000) scale(0.100000,-0.100000)"
fill="#000000" stroke="none">
<path d="M11246 26890 c-17 -14 -38 -32 -46 -40 -9 -8 -51 -46 -93 -84 -43
-38 -88 -78 -101 -90 -74 -68 -192 -173 -207 -186 -9 -9 -54 -49 -99 -90 -45
-41 -90 -81 -99 -90 -17 -14 -139 -124 -185 -165 -12 -11 -64 -58 -116 -105
-51 -47 -102 -93 -114 -103 -43 -38 -226 -202 -321 -289 -22 -20 -49 -45 -61
-55 -28 -24 -153 -135 -185 -164 -59 -55 -208 -189 -253 -230 -27 -24 -59 -53
-72 -64 -12 -12 -53 -48 -90 -80 -36 -33 -78 -71 -93 -85 -14 -14 -66 -61
-116 -105 -83 -74 -149 -133 -216 -195 -15 -14 -53 -48 -85 -77 -33 -28 -73
-64 -90 -80 -17 -15 -66 -59 -109 -98 -43 -38 -88 -79 -99 -90 -12 -11 -57
-51 -100 -90 -44 -38 -89 -79 -101 -90 -12 -11 -61 -56 -111 -100 -49 -44
-105 -94 -124 -112 -19 -17 -47 -42 -61 -55 -15 -13 -64 -57 -110 -99 -46 -42
-104 -93 -129 -115 -25 -21 -49 -44 -55 -50 -5 -7 -57 -54 -115 -105 -58 -51
-123 -109 -145 -129 -113 -103 -219 -198 -400 -360 -77 -69 -142 -128 -145
-131 -3 -3 -32 -30 -65 -59 -51 -45 -166 -149 -249 -225 -12 -11 -60 -54 -106
-95 -46 -41 -88 -79 -94 -85 -6 -5 -54 -48 -106 -95 -52 -47 -97 -87 -100 -90
-3 -3 -48 -43 -100 -90 -52 -47 -97 -87 -100 -90 -3 -3 -50 -45 -105 -95 -55
-49 -102 -92 -105 -95 -3 -3 -66 -59 -140 -125 -74 -66 -141 -127 -150 -135
-9 -8 -54 -49 -100 -90 -46 -41 -88 -80 -94 -85 -6 -6 -76 -68 -156 -139 -80
-71 -150 -134 -155 -140 -6 -6 -33 -31 -60 -55 -28 -24 -73 -65 -100 -90 -28
-25 -91 -82 -140 -126 -50 -44 -95 -84 -101 -90 -49 -45 -183 -167 -201 -182
-12 -11 -56 -50 -99 -89 -84 -75 -86 -76 -199 -179 -43 -38 -88 -79 -100 -90
-13 -11 -40 -36 -61 -55 -22 -19 -86 -78 -144 -130 -58 -51 -107 -96 -110 -99
-3 -4 -43 -40 -90 -81 -47 -41 -107 -96 -135 -121 -27 -25 -72 -66 -100 -90
-27 -24 -52 -47 -55 -50 -3 -3 -50 -45 -105 -95 -55 -49 -102 -91 -105 -94 -3
-3 -50 -46 -105 -95 -55 -49 -113 -102 -130 -117 l-30 -28 0 -5753 0 -5752 45
-39 c46 -40 224 -199 339 -304 14 -13 55 -49 90 -80 35 -32 71 -64 80 -72 9
-9 59 -54 111 -100 52 -47 102 -92 110 -100 8 -8 51 -47 94 -85 44 -39 89 -79
100 -90 12 -11 57 -51 100 -90 44 -38 104 -93 135 -121 31 -28 106 -96 166
-150 61 -54 115 -103 121 -109 6 -5 44 -39 84 -75 41 -36 81 -72 90 -80 17
-17 188 -170 239 -215 18 -17 45 -41 60 -55 15 -14 67 -61 116 -105 49 -44
112 -101 140 -126 27 -25 70 -63 94 -85 25 -21 52 -46 61 -54 9 -8 59 -53 111
-100 52 -47 99 -89 105 -95 26 -24 194 -175 249 -224 33 -29 85 -77 116 -105
31 -28 88 -80 128 -116 41 -36 83 -74 96 -85 12 -11 39 -36 61 -55 21 -19 64
-57 94 -85 31 -27 96 -86 145 -130 92 -83 148 -133 299 -270 49 -44 96 -87
106 -95 9 -8 52 -47 96 -87 43 -39 88 -80 100 -90 18 -15 124 -111 210 -189
57 -51 179 -160 194 -174 10 -8 57 -51 106 -96 49 -44 109 -98 134 -120 24
-21 51 -46 60 -54 9 -8 56 -51 105 -95 49 -44 93 -85 99 -90 6 -6 56 -50 111
-100 55 -49 114 -101 130 -116 17 -15 39 -36 51 -46 12 -10 61 -54 110 -99 49
-44 109 -98 134 -120 24 -21 54 -48 65 -59 11 -11 61 -56 110 -100 50 -44 92
-82 95 -85 3 -3 43 -39 89 -80 46 -41 94 -84 106 -95 11 -11 58 -54 105 -95
46 -41 95 -86 109 -99 14 -13 57 -51 95 -85 38 -33 79 -70 90 -81 12 -11 60
-54 106 -95 47 -41 92 -81 100 -90 8 -8 56 -51 105 -95 83 -74 105 -93 191
-172 82 -74 199 -180 218 -196 21 -18 35 -31 146 -132 31 -27 96 -86 145 -130
48 -44 93 -84 99 -90 6 -5 34 -30 61 -54 28 -25 91 -81 140 -126 50 -45 142
-128 205 -185 63 -57 135 -121 160 -144 25 -23 88 -79 140 -126 52 -47 115
-103 140 -126 25 -23 81 -73 124 -113 l79 -71 6469 0 6468 0 0 4075 0 4075
-4272 0 -4273 0 -50 46 c-27 25 -104 93 -170 152 -66 59 -127 114 -135 122
-22 20 -85 77 -200 180 -52 47 -115 104 -140 126 -25 23 -57 52 -72 65 -14 13
-61 56 -104 94 -42 39 -86 78 -97 87 -36 32 -170 153 -181 163 -10 10 -74 68
-310 279 -44 39 -89 80 -101 91 -11 11 -61 56 -110 100 -50 44 -107 96 -129
115 -139 127 -249 226 -366 330 -63 57 -153 138 -200 180 -47 42 -112 101
-145 131 -116 104 -206 184 -243 219 -21 19 -69 63 -108 96 -38 34 -80 73 -95
85 -14 13 -63 58 -109 99 -46 41 -93 84 -105 95 -43 39 -189 170 -213 193 -14
12 -50 44 -80 70 -30 26 -64 57 -76 68 -12 12 -70 66 -131 119 -60 54 -133
119 -161 144 -28 25 -65 58 -82 74 -32 27 -32 28 -32 125 -1 53 -1 839 -1
1746 l-1 1649 38 37 c22 19 127 114 234 210 107 95 197 176 200 179 3 4 50 46
105 95 55 50 102 92 105 95 3 3 45 42 95 86 49 44 107 96 129 115 70 64 82 74
161 145 43 39 88 79 99 90 12 11 64 58 116 104 52 46 102 91 110 100 9 9 51
47 95 86 44 38 85 74 91 80 6 5 46 42 90 82 43 39 91 82 105 95 14 12 63 57
109 98 47 41 111 100 145 130 33 31 75 69 94 85 19 17 39 35 45 40 6 6 56 51
111 100 55 49 102 92 105 95 3 3 45 41 95 85 49 44 99 89 110 100 12 11 54 49
95 85 40 36 85 76 100 90 15 14 62 57 105 95 44 39 89 79 101 90 12 11 55 49
95 85 40 36 77 70 83 76 6 5 58 52 116 104 58 51 107 96 110 99 3 3 43 40 90
81 46 41 91 82 100 90 9 8 53 49 99 90 92 82 96 86 201 180 l71 65 4267 1
4267 0 0 4079 0 4080 -6455 0 -6454 0 -30 -25z"/>
</g>
</svg>
